<svg width="60" height="60" viewBox="0 0 60 60" fill="none" xmlns="http://www.w3.org/2000/svg">
<path fill-rule="evenodd" clip-rule="evenodd" d="M30 7.5C30.663 7.5 31.299 7.7634 31.7677 8.23223L49.2677 25.7323C50.244 26.7085 50.244 28.2915 49.2677 29.2677C48.2915 30.244 46.7085 30.244 45.7323 29.2677L32.5 16.0355V50C32.5 51.3807 31.3808 52.5 30 52.5C28.6192 52.5 27.5 51.3807 27.5 50V16.0355L14.2678 29.2677C13.2914 30.244 11.7085 30.244 10.7322 29.2677C9.75593 28.2915 9.75593 26.7085 10.7322 25.7323L28.2323 8.23223C28.701 7.7634 29.337 7.5 30 7.5Z" fill="#EE941E"/>
</svg>
