<svg width="177" height="58" viewBox="0 0 177 58" fill="none" xmlns="http://www.w3.org/2000/svg">
<mask id="path-1-inside-1_58_10" fill="white">
<path d="M116.758 22.7357H109.54C109.12 22.7357 108.779 23.0771 108.779 23.4966V27.2074C108.779 29.4863 110.574 31.3538 112.824 31.4701V34.8795C112.61 38.2825 109.774 40.9857 106.318 40.9857C102.723 40.9857 99.7976 38.0604 99.7976 34.4649L99.797 31.4711C102.693 31.3689 105.017 28.9831 105.017 26.0629V21.2103C105.017 20.7568 104.648 20.3878 104.195 20.3878H99.797V12.906C100.657 12.7521 101.313 12 101.313 11.0961C101.313 10.1922 100.657 9.44013 99.797 9.28622V6.9099H100.505C100.789 6.9099 101.032 6.70689 101.083 6.42718L101.542 3.90398C101.573 3.73196 101.527 3.55633 101.415 3.42207C101.303 3.28789 101.138 3.21094 100.964 3.21094H98.0829C97.9081 3.21094 97.7436 3.28789 97.6316 3.42216C97.5195 3.55642 97.4732 3.73205 97.5044 3.90416L97.9632 6.42709C98.0139 6.70689 98.2572 6.91008 98.5416 6.91008H99.1481V9.28649C98.2878 9.4404 97.6323 10.1925 97.6323 11.0964C97.6323 12.0003 98.2878 12.7523 99.1481 12.9063V20.3881H94.7514C94.2979 20.3881 93.9289 20.7571 93.9289 21.2106V26.0632C93.9289 28.983 96.2529 31.3687 99.148 31.4713V34.486C99.1367 38.0719 96.2164 40.9859 92.6278 40.9859C89.0323 40.9859 86.1071 38.0607 86.1071 34.4651V31.4735C88.4095 31.4143 90.2647 29.5243 90.2647 27.2078V23.4969C90.2647 23.0774 89.9235 22.7361 89.504 22.7361H82.2855C81.866 22.7361 81.5247 23.0774 81.5247 23.4969V27.2078C81.5247 29.4487 83.2607 31.2904 85.4584 31.4619V34.9068H85.4733C85.7024 38.6551 88.823 41.6348 92.6279 41.6348C95.5198 41.6348 98.0155 39.9128 99.1481 37.4411V40.1493C98.2878 40.3033 97.6323 41.0554 97.6323 41.9592C97.6323 42.974 98.4578 43.7995 99.4725 43.7995C100.487 43.7995 101.313 42.974 101.313 41.9592C101.313 41.0554 100.657 40.3033 99.7969 40.1493V37.4387C100.929 39.9116 103.425 41.6348 106.318 41.6348C110.123 41.6348 113.244 38.6551 113.473 34.9068L113.473 34.9021C113.482 34.7575 113.488 34.612 113.488 34.4651H113.473V31.4705C115.724 31.3541 117.519 29.4868 117.519 27.2078V23.4969C117.519 23.0771 117.178 22.7357 116.758 22.7357ZM85.7932 30.8272C83.7973 30.8272 82.1735 29.2034 82.1735 27.2074V23.4966C82.1735 23.4347 82.2237 23.3845 82.2856 23.3845H89.5042C89.5659 23.3845 89.6161 23.4348 89.6161 23.4966V27.2074C89.6161 29.2034 87.9923 30.8272 85.9964 30.8272H85.7932ZM98.5925 6.26111L98.1558 3.85974H100.891L100.454 6.26111H98.5925ZM98.2811 11.0961C98.2811 10.4391 98.8156 9.90466 99.4726 9.90466C100.13 9.90466 100.664 10.4391 100.664 11.0961C100.664 11.7531 100.13 12.2876 99.4726 12.2876C98.8157 12.2876 98.2811 11.7531 98.2811 11.0961ZM100.664 41.9588C100.664 42.6157 100.13 43.1502 99.4726 43.1502C98.8156 43.1502 98.2811 42.6157 98.2811 41.9588C98.2811 41.3019 98.8156 40.7673 99.4726 40.7673C100.13 40.7673 100.664 41.3019 100.664 41.9588ZM99.6041 30.8272H99.3421C96.715 30.8272 94.5779 28.6899 94.5779 26.0629V21.2103C94.5779 21.1146 94.6558 21.0366 94.7516 21.0366H104.195C104.29 21.0366 104.368 21.1146 104.368 21.2103V26.0629C104.368 28.6899 102.231 30.8272 99.6041 30.8272ZM116.87 27.2074C116.87 29.2034 115.246 30.8272 113.25 30.8272H113.047C111.051 30.8272 109.428 29.2034 109.428 27.2074V23.4966C109.428 23.4347 109.478 23.3845 109.539 23.3845H116.758C116.82 23.3845 116.87 23.4348 116.87 23.4966L116.87 27.2074Z"/>
</mask>
<path d="M116.758 22.7357H109.54C109.12 22.7357 108.779 23.0771 108.779 23.4966V27.2074C108.779 29.4863 110.574 31.3538 112.824 31.4701V34.8795C112.61 38.2825 109.774 40.9857 106.318 40.9857C102.723 40.9857 99.7976 38.0604 99.7976 34.4649L99.797 31.4711C102.693 31.3689 105.017 28.9831 105.017 26.0629V21.2103C105.017 20.7568 104.648 20.3878 104.195 20.3878H99.797V12.906C100.657 12.7521 101.313 12 101.313 11.0961C101.313 10.1922 100.657 9.44013 99.797 9.28622V6.9099H100.505C100.789 6.9099 101.032 6.70689 101.083 6.42718L101.542 3.90398C101.573 3.73196 101.527 3.55633 101.415 3.42207C101.303 3.28789 101.138 3.21094 100.964 3.21094H98.0829C97.9081 3.21094 97.7436 3.28789 97.6316 3.42216C97.5195 3.55642 97.4732 3.73205 97.5044 3.90416L97.9632 6.42709C98.0139 6.70689 98.2572 6.91008 98.5416 6.91008H99.1481V9.28649C98.2878 9.4404 97.6323 10.1925 97.6323 11.0964C97.6323 12.0003 98.2878 12.7523 99.1481 12.9063V20.3881H94.7514C94.2979 20.3881 93.9289 20.7571 93.9289 21.2106V26.0632C93.9289 28.983 96.2529 31.3687 99.148 31.4713V34.486C99.1367 38.0719 96.2164 40.9859 92.6278 40.9859C89.0323 40.9859 86.1071 38.0607 86.1071 34.4651V31.4735C88.4095 31.4143 90.2647 29.5243 90.2647 27.2078V23.4969C90.2647 23.0774 89.9235 22.7361 89.504 22.7361H82.2855C81.866 22.7361 81.5247 23.0774 81.5247 23.4969V27.2078C81.5247 29.4487 83.2607 31.2904 85.4584 31.4619V34.9068H85.4733C85.7024 38.6551 88.823 41.6348 92.6279 41.6348C95.5198 41.6348 98.0155 39.9128 99.1481 37.4411V40.1493C98.2878 40.3033 97.6323 41.0554 97.6323 41.9592C97.6323 42.974 98.4578 43.7995 99.4725 43.7995C100.487 43.7995 101.313 42.974 101.313 41.9592C101.313 41.0554 100.657 40.3033 99.7969 40.1493V37.4387C100.929 39.9116 103.425 41.6348 106.318 41.6348C110.123 41.6348 113.244 38.6551 113.473 34.9068L113.473 34.9021C113.482 34.7575 113.488 34.612 113.488 34.4651H113.473V31.4705C115.724 31.3541 117.519 29.4868 117.519 27.2078V23.4969C117.519 23.0771 117.178 22.7357 116.758 22.7357ZM85.7932 30.8272C83.7973 30.8272 82.1735 29.2034 82.1735 27.2074V23.4966C82.1735 23.4347 82.2237 23.3845 82.2856 23.3845H89.5042C89.5659 23.3845 89.6161 23.4348 89.6161 23.4966V27.2074C89.6161 29.2034 87.9923 30.8272 85.9964 30.8272H85.7932ZM98.5925 6.26111L98.1558 3.85974H100.891L100.454 6.26111H98.5925ZM98.2811 11.0961C98.2811 10.4391 98.8156 9.90466 99.4726 9.90466C100.13 9.90466 100.664 10.4391 100.664 11.0961C100.664 11.7531 100.13 12.2876 99.4726 12.2876C98.8157 12.2876 98.2811 11.7531 98.2811 11.0961ZM100.664 41.9588C100.664 42.6157 100.13 43.1502 99.4726 43.1502C98.8156 43.1502 98.2811 42.6157 98.2811 41.9588C98.2811 41.3019 98.8156 40.7673 99.4726 40.7673C100.13 40.7673 100.664 41.3019 100.664 41.9588ZM99.6041 30.8272H99.3421C96.715 30.8272 94.5779 28.6899 94.5779 26.0629V21.2103C94.5779 21.1146 94.6558 21.0366 94.7516 21.0366H104.195C104.29 21.0366 104.368 21.1146 104.368 21.2103V26.0629C104.368 28.6899 102.231 30.8272 99.6041 30.8272ZM116.87 27.2074C116.87 29.2034 115.246 30.8272 113.25 30.8272H113.047C111.051 30.8272 109.428 29.2034 109.428 27.2074V23.4966C109.428 23.4347 109.478 23.3845 109.539 23.3845H116.758C116.82 23.3845 116.87 23.4348 116.87 23.4966L116.87 27.2074Z" fill="#F29305" stroke="#F29305" stroke-width="1.53789" mask="url(#path-1-inside-1_58_10)"/>
<mask id="path-2-inside-2_58_10" fill="white">
<path d="M116.758 22.7357H109.54C109.12 22.7357 108.779 23.0771 108.779 23.4966V27.2074C108.779 29.4863 110.574 31.3538 112.824 31.4701V34.8795C112.61 38.2825 109.774 40.9857 106.318 40.9857C102.723 40.9857 99.7976 38.0604 99.7976 34.4649L99.797 31.4711C102.693 31.3689 105.017 28.9831 105.017 26.0629V21.2103C105.017 20.7568 104.648 20.3878 104.195 20.3878H99.797V12.906C100.657 12.7521 101.313 12 101.313 11.0961C101.313 10.1922 100.657 9.44013 99.797 9.28622V6.9099H100.505C100.789 6.9099 101.032 6.70689 101.083 6.42718L101.542 3.90398C101.573 3.73196 101.527 3.55633 101.415 3.42207C101.303 3.28789 101.138 3.21094 100.964 3.21094H98.0829C97.9081 3.21094 97.7436 3.28789 97.6316 3.42216C97.5195 3.55642 97.4732 3.73205 97.5044 3.90416L97.9632 6.42709C98.0139 6.70689 98.2572 6.91008 98.5416 6.91008H99.1481V9.28649C98.2878 9.4404 97.6323 10.1925 97.6323 11.0964C97.6323 12.0003 98.2878 12.7523 99.1481 12.9063V20.3881H94.7514C94.2979 20.3881 93.9289 20.7571 93.9289 21.2106V26.0632C93.9289 28.983 96.2529 31.3687 99.148 31.4713V34.486C99.1367 38.0719 96.2164 40.9859 92.6278 40.9859C89.0323 40.9859 86.1071 38.0607 86.1071 34.4651V31.4735C88.4095 31.4143 90.2647 29.5243 90.2647 27.2078V23.4969C90.2647 23.0774 89.9235 22.7361 89.504 22.7361H82.2855C81.866 22.7361 81.5247 23.0774 81.5247 23.4969V27.2078C81.5247 29.4487 83.2607 31.2904 85.4584 31.4619V34.9068H85.4733C85.7024 38.6551 88.823 41.6348 92.6279 41.6348C95.5198 41.6348 98.0155 39.9128 99.1481 37.4411V40.1493C98.2878 40.3033 97.6323 41.0554 97.6323 41.9592C97.6323 42.974 98.4578 43.7995 99.4725 43.7995C100.487 43.7995 101.313 42.974 101.313 41.9592C101.313 41.0554 100.657 40.3033 99.7969 40.1493V37.4387C100.929 39.9116 103.425 41.6348 106.318 41.6348C110.123 41.6348 113.244 38.6551 113.473 34.9068L113.473 34.9021C113.482 34.7575 113.488 34.612 113.488 34.4651H113.473V31.4705C115.724 31.3541 117.519 29.4868 117.519 27.2078V23.4969C117.519 23.0771 117.178 22.7357 116.758 22.7357ZM85.7932 30.8272C83.7973 30.8272 82.1735 29.2034 82.1735 27.2074V23.4966C82.1735 23.4347 82.2237 23.3845 82.2856 23.3845H89.5042C89.5659 23.3845 89.6161 23.4348 89.6161 23.4966V27.2074C89.6161 29.2034 87.9923 30.8272 85.9964 30.8272H85.7932ZM98.5925 6.26111L98.1558 3.85974H100.891L100.454 6.26111H98.5925ZM98.2811 11.0961C98.2811 10.4391 98.8156 9.90466 99.4726 9.90466C100.13 9.90466 100.664 10.4391 100.664 11.0961C100.664 11.7531 100.13 12.2876 99.4726 12.2876C98.8157 12.2876 98.2811 11.7531 98.2811 11.0961ZM100.664 41.9588C100.664 42.6157 100.13 43.1502 99.4726 43.1502C98.8156 43.1502 98.2811 42.6157 98.2811 41.9588C98.2811 41.3019 98.8156 40.7673 99.4726 40.7673C100.13 40.7673 100.664 41.3019 100.664 41.9588ZM99.6041 30.8272H99.3421C96.715 30.8272 94.5779 28.6899 94.5779 26.0629V21.2103C94.5779 21.1146 94.6558 21.0366 94.7516 21.0366H104.195C104.29 21.0366 104.368 21.1146 104.368 21.2103V26.0629C104.368 28.6899 102.231 30.8272 99.6041 30.8272ZM116.87 27.2074C116.87 29.2034 115.246 30.8272 113.25 30.8272H113.047C111.051 30.8272 109.428 29.2034 109.428 27.2074V23.4966C109.428 23.4347 109.478 23.3845 109.539 23.3845H116.758C116.82 23.3845 116.87 23.4348 116.87 23.4966L116.87 27.2074Z"/>
</mask>
<path d="M116.758 22.7357H109.54C109.12 22.7357 108.779 23.0771 108.779 23.4966V27.2074C108.779 29.4863 110.574 31.3538 112.824 31.4701V34.8795C112.61 38.2825 109.774 40.9857 106.318 40.9857C102.723 40.9857 99.7976 38.0604 99.7976 34.4649L99.797 31.4711C102.693 31.3689 105.017 28.9831 105.017 26.0629V21.2103C105.017 20.7568 104.648 20.3878 104.195 20.3878H99.797V12.906C100.657 12.7521 101.313 12 101.313 11.0961C101.313 10.1922 100.657 9.44013 99.797 9.28622V6.9099H100.505C100.789 6.9099 101.032 6.70689 101.083 6.42718L101.542 3.90398C101.573 3.73196 101.527 3.55633 101.415 3.42207C101.303 3.28789 101.138 3.21094 100.964 3.21094H98.0829C97.9081 3.21094 97.7436 3.28789 97.6316 3.42216C97.5195 3.55642 97.4732 3.73205 97.5044 3.90416L97.9632 6.42709C98.0139 6.70689 98.2572 6.91008 98.5416 6.91008H99.1481V9.28649C98.2878 9.4404 97.6323 10.1925 97.6323 11.0964C97.6323 12.0003 98.2878 12.7523 99.1481 12.9063V20.3881H94.7514C94.2979 20.3881 93.9289 20.7571 93.9289 21.2106V26.0632C93.9289 28.983 96.2529 31.3687 99.148 31.4713V34.486C99.1367 38.0719 96.2164 40.9859 92.6278 40.9859C89.0323 40.9859 86.1071 38.0607 86.1071 34.4651V31.4735C88.4095 31.4143 90.2647 29.5243 90.2647 27.2078V23.4969C90.2647 23.0774 89.9235 22.7361 89.504 22.7361H82.2855C81.866 22.7361 81.5247 23.0774 81.5247 23.4969V27.2078C81.5247 29.4487 83.2607 31.2904 85.4584 31.4619V34.9068H85.4733C85.7024 38.6551 88.823 41.6348 92.6279 41.6348C95.5198 41.6348 98.0155 39.9128 99.1481 37.4411V40.1493C98.2878 40.3033 97.6323 41.0554 97.6323 41.9592C97.6323 42.974 98.4578 43.7995 99.4725 43.7995C100.487 43.7995 101.313 42.974 101.313 41.9592C101.313 41.0554 100.657 40.3033 99.7969 40.1493V37.4387C100.929 39.9116 103.425 41.6348 106.318 41.6348C110.123 41.6348 113.244 38.6551 113.473 34.9068L113.473 34.9021C113.482 34.7575 113.488 34.612 113.488 34.4651H113.473V31.4705C115.724 31.3541 117.519 29.4868 117.519 27.2078V23.4969C117.519 23.0771 117.178 22.7357 116.758 22.7357ZM85.7932 30.8272C83.7973 30.8272 82.1735 29.2034 82.1735 27.2074V23.4966C82.1735 23.4347 82.2237 23.3845 82.2856 23.3845H89.5042C89.5659 23.3845 89.6161 23.4348 89.6161 23.4966V27.2074C89.6161 29.2034 87.9923 30.8272 85.9964 30.8272H85.7932ZM98.5925 6.26111L98.1558 3.85974H100.891L100.454 6.26111H98.5925ZM98.2811 11.0961C98.2811 10.4391 98.8156 9.90466 99.4726 9.90466C100.13 9.90466 100.664 10.4391 100.664 11.0961C100.664 11.7531 100.13 12.2876 99.4726 12.2876C98.8157 12.2876 98.2811 11.7531 98.2811 11.0961ZM100.664 41.9588C100.664 42.6157 100.13 43.1502 99.4726 43.1502C98.8156 43.1502 98.2811 42.6157 98.2811 41.9588C98.2811 41.3019 98.8156 40.7673 99.4726 40.7673C100.13 40.7673 100.664 41.3019 100.664 41.9588ZM99.6041 30.8272H99.3421C96.715 30.8272 94.5779 28.6899 94.5779 26.0629V21.2103C94.5779 21.1146 94.6558 21.0366 94.7516 21.0366H104.195C104.29 21.0366 104.368 21.1146 104.368 21.2103V26.0629C104.368 28.6899 102.231 30.8272 99.6041 30.8272ZM116.87 27.2074C116.87 29.2034 115.246 30.8272 113.25 30.8272H113.047C111.051 30.8272 109.428 29.2034 109.428 27.2074V23.4966C109.428 23.4347 109.478 23.3845 109.539 23.3845H116.758C116.82 23.3845 116.87 23.4348 116.87 23.4966L116.87 27.2074Z" fill="#F29305" stroke="#F29305" stroke-width="1.53789" mask="url(#path-2-inside-2_58_10)"/>
<mask id="path-3-inside-3_58_10" fill="white">
<path d="M116.758 22.7357H109.54C109.12 22.7357 108.779 23.0771 108.779 23.4966V27.2074C108.779 29.4863 110.574 31.3538 112.824 31.4701V34.8795C112.61 38.2825 109.774 40.9857 106.318 40.9857C102.723 40.9857 99.7976 38.0604 99.7976 34.4649L99.797 31.4711C102.693 31.3689 105.017 28.9831 105.017 26.0629V21.2103C105.017 20.7568 104.648 20.3878 104.195 20.3878H99.797V12.906C100.657 12.7521 101.313 12 101.313 11.0961C101.313 10.1922 100.657 9.44013 99.797 9.28622V6.9099H100.505C100.789 6.9099 101.032 6.70689 101.083 6.42718L101.542 3.90398C101.573 3.73196 101.527 3.55633 101.415 3.42207C101.303 3.28789 101.138 3.21094 100.964 3.21094H98.0829C97.9081 3.21094 97.7436 3.28789 97.6316 3.42216C97.5195 3.55642 97.4732 3.73205 97.5044 3.90416L97.9632 6.42709C98.0139 6.70689 98.2572 6.91008 98.5416 6.91008H99.1481V9.28649C98.2878 9.4404 97.6323 10.1925 97.6323 11.0964C97.6323 12.0003 98.2878 12.7523 99.1481 12.9063V20.3881H94.7514C94.2979 20.3881 93.9289 20.7571 93.9289 21.2106V26.0632C93.9289 28.983 96.2529 31.3687 99.148 31.4713V34.486C99.1367 38.0719 96.2164 40.9859 92.6278 40.9859C89.0323 40.9859 86.1071 38.0607 86.1071 34.4651V31.4735C88.4095 31.4143 90.2647 29.5243 90.2647 27.2078V23.4969C90.2647 23.0774 89.9235 22.7361 89.504 22.7361H82.2855C81.866 22.7361 81.5247 23.0774 81.5247 23.4969V27.2078C81.5247 29.4487 83.2607 31.2904 85.4584 31.4619V34.9068H85.4733C85.7024 38.6551 88.823 41.6348 92.6279 41.6348C95.5198 41.6348 98.0155 39.9128 99.1481 37.4411V40.1493C98.2878 40.3033 97.6323 41.0554 97.6323 41.9592C97.6323 42.974 98.4578 43.7995 99.4725 43.7995C100.487 43.7995 101.313 42.974 101.313 41.9592C101.313 41.0554 100.657 40.3033 99.7969 40.1493V37.4387C100.929 39.9116 103.425 41.6348 106.318 41.6348C110.123 41.6348 113.244 38.6551 113.473 34.9068L113.473 34.9021C113.482 34.7575 113.488 34.612 113.488 34.4651H113.473V31.4705C115.724 31.3541 117.519 29.4868 117.519 27.2078V23.4969C117.519 23.0771 117.178 22.7357 116.758 22.7357ZM85.7932 30.8272C83.7973 30.8272 82.1735 29.2034 82.1735 27.2074V23.4966C82.1735 23.4347 82.2237 23.3845 82.2856 23.3845H89.5042C89.5659 23.3845 89.6161 23.4348 89.6161 23.4966V27.2074C89.6161 29.2034 87.9923 30.8272 85.9964 30.8272H85.7932ZM98.5925 6.26111L98.1558 3.85974H100.891L100.454 6.26111H98.5925ZM98.2811 11.0961C98.2811 10.4391 98.8156 9.90466 99.4726 9.90466C100.13 9.90466 100.664 10.4391 100.664 11.0961C100.664 11.7531 100.13 12.2876 99.4726 12.2876C98.8157 12.2876 98.2811 11.7531 98.2811 11.0961ZM100.664 41.9588C100.664 42.6157 100.13 43.1502 99.4726 43.1502C98.8156 43.1502 98.2811 42.6157 98.2811 41.9588C98.2811 41.3019 98.8156 40.7673 99.4726 40.7673C100.13 40.7673 100.664 41.3019 100.664 41.9588ZM99.6041 30.8272H99.3421C96.715 30.8272 94.5779 28.6899 94.5779 26.0629V21.2103C94.5779 21.1146 94.6558 21.0366 94.7516 21.0366H104.195C104.29 21.0366 104.368 21.1146 104.368 21.2103V26.0629C104.368 28.6899 102.231 30.8272 99.6041 30.8272ZM116.87 27.2074C116.87 29.2034 115.246 30.8272 113.25 30.8272H113.047C111.051 30.8272 109.428 29.2034 109.428 27.2074V23.4966C109.428 23.4347 109.478 23.3845 109.539 23.3845H116.758C116.82 23.3845 116.87 23.4348 116.87 23.4966L116.87 27.2074Z"/>
</mask>
<path d="M116.758 22.7357H109.54C109.12 22.7357 108.779 23.0771 108.779 23.4966V27.2074C108.779 29.4863 110.574 31.3538 112.824 31.4701V34.8795C112.61 38.2825 109.774 40.9857 106.318 40.9857C102.723 40.9857 99.7976 38.0604 99.7976 34.4649L99.797 31.4711C102.693 31.3689 105.017 28.9831 105.017 26.0629V21.2103C105.017 20.7568 104.648 20.3878 104.195 20.3878H99.797V12.906C100.657 12.7521 101.313 12 101.313 11.0961C101.313 10.1922 100.657 9.44013 99.797 9.28622V6.9099H100.505C100.789 6.9099 101.032 6.70689 101.083 6.42718L101.542 3.90398C101.573 3.73196 101.527 3.55633 101.415 3.42207C101.303 3.28789 101.138 3.21094 100.964 3.21094H98.0829C97.9081 3.21094 97.7436 3.28789 97.6316 3.42216C97.5195 3.55642 97.4732 3.73205 97.5044 3.90416L97.9632 6.42709C98.0139 6.70689 98.2572 6.91008 98.5416 6.91008H99.1481V9.28649C98.2878 9.4404 97.6323 10.1925 97.6323 11.0964C97.6323 12.0003 98.2878 12.7523 99.1481 12.9063V20.3881H94.7514C94.2979 20.3881 93.9289 20.7571 93.9289 21.2106V26.0632C93.9289 28.983 96.2529 31.3687 99.148 31.4713V34.486C99.1367 38.0719 96.2164 40.9859 92.6278 40.9859C89.0323 40.9859 86.1071 38.0607 86.1071 34.4651V31.4735C88.4095 31.4143 90.2647 29.5243 90.2647 27.2078V23.4969C90.2647 23.0774 89.9235 22.7361 89.504 22.7361H82.2855C81.866 22.7361 81.5247 23.0774 81.5247 23.4969V27.2078C81.5247 29.4487 83.2607 31.2904 85.4584 31.4619V34.9068H85.4733C85.7024 38.6551 88.823 41.6348 92.6279 41.6348C95.5198 41.6348 98.0155 39.9128 99.1481 37.4411V40.1493C98.2878 40.3033 97.6323 41.0554 97.6323 41.9592C97.6323 42.974 98.4578 43.7995 99.4725 43.7995C100.487 43.7995 101.313 42.974 101.313 41.9592C101.313 41.0554 100.657 40.3033 99.7969 40.1493V37.4387C100.929 39.9116 103.425 41.6348 106.318 41.6348C110.123 41.6348 113.244 38.6551 113.473 34.9068L113.473 34.9021C113.482 34.7575 113.488 34.612 113.488 34.4651H113.473V31.4705C115.724 31.3541 117.519 29.4868 117.519 27.2078V23.4969C117.519 23.0771 117.178 22.7357 116.758 22.7357ZM85.7932 30.8272C83.7973 30.8272 82.1735 29.2034 82.1735 27.2074V23.4966C82.1735 23.4347 82.2237 23.3845 82.2856 23.3845H89.5042C89.5659 23.3845 89.6161 23.4348 89.6161 23.4966V27.2074C89.6161 29.2034 87.9923 30.8272 85.9964 30.8272H85.7932ZM98.5925 6.26111L98.1558 3.85974H100.891L100.454 6.26111H98.5925ZM98.2811 11.0961C98.2811 10.4391 98.8156 9.90466 99.4726 9.90466C100.13 9.90466 100.664 10.4391 100.664 11.0961C100.664 11.7531 100.13 12.2876 99.4726 12.2876C98.8157 12.2876 98.2811 11.7531 98.2811 11.0961ZM100.664 41.9588C100.664 42.6157 100.13 43.1502 99.4726 43.1502C98.8156 43.1502 98.2811 42.6157 98.2811 41.9588C98.2811 41.3019 98.8156 40.7673 99.4726 40.7673C100.13 40.7673 100.664 41.3019 100.664 41.9588ZM99.6041 30.8272H99.3421C96.715 30.8272 94.5779 28.6899 94.5779 26.0629V21.2103C94.5779 21.1146 94.6558 21.0366 94.7516 21.0366H104.195C104.29 21.0366 104.368 21.1146 104.368 21.2103V26.0629C104.368 28.6899 102.231 30.8272 99.6041 30.8272ZM116.87 27.2074C116.87 29.2034 115.246 30.8272 113.25 30.8272H113.047C111.051 30.8272 109.428 29.2034 109.428 27.2074V23.4966C109.428 23.4347 109.478 23.3845 109.539 23.3845H116.758C116.82 23.3845 116.87 23.4348 116.87 23.4966L116.87 27.2074Z" fill="#F29305" stroke="#F29305" stroke-width="1.53789" mask="url(#path-3-inside-3_58_10)"/>
<mask id="path-4-inside-4_58_10" fill="white">
<path d="M116.758 22.7357H109.54C109.12 22.7357 108.779 23.0771 108.779 23.4966V27.2074C108.779 29.4863 110.574 31.3538 112.824 31.4701V34.8795C112.61 38.2825 109.774 40.9857 106.318 40.9857C102.723 40.9857 99.7976 38.0604 99.7976 34.4649L99.797 31.4711C102.693 31.3689 105.017 28.9831 105.017 26.0629V21.2103C105.017 20.7568 104.648 20.3878 104.195 20.3878H99.797V12.906C100.657 12.7521 101.313 12 101.313 11.0961C101.313 10.1922 100.657 9.44013 99.797 9.28622V6.9099H100.505C100.789 6.9099 101.032 6.70689 101.083 6.42718L101.542 3.90398C101.573 3.73196 101.527 3.55633 101.415 3.42207C101.303 3.28789 101.138 3.21094 100.964 3.21094H98.0829C97.9081 3.21094 97.7436 3.28789 97.6316 3.42216C97.5195 3.55642 97.4732 3.73205 97.5044 3.90416L97.9632 6.42709C98.0139 6.70689 98.2572 6.91008 98.5416 6.91008H99.1481V9.28649C98.2878 9.4404 97.6323 10.1925 97.6323 11.0964C97.6323 12.0003 98.2878 12.7523 99.1481 12.9063V20.3881H94.7514C94.2979 20.3881 93.9289 20.7571 93.9289 21.2106V26.0632C93.9289 28.983 96.2529 31.3687 99.148 31.4713V34.486C99.1367 38.0719 96.2164 40.9859 92.6278 40.9859C89.0323 40.9859 86.1071 38.0607 86.1071 34.4651V31.4735C88.4095 31.4143 90.2647 29.5243 90.2647 27.2078V23.4969C90.2647 23.0774 89.9235 22.7361 89.504 22.7361H82.2855C81.866 22.7361 81.5247 23.0774 81.5247 23.4969V27.2078C81.5247 29.4487 83.2607 31.2904 85.4584 31.4619V34.9068H85.4733C85.7024 38.6551 88.823 41.6348 92.6279 41.6348C95.5198 41.6348 98.0155 39.9128 99.1481 37.4411V40.1493C98.2878 40.3033 97.6323 41.0554 97.6323 41.9592C97.6323 42.974 98.4578 43.7995 99.4725 43.7995C100.487 43.7995 101.313 42.974 101.313 41.9592C101.313 41.0554 100.657 40.3033 99.7969 40.1493V37.4387C100.929 39.9116 103.425 41.6348 106.318 41.6348C110.123 41.6348 113.244 38.6551 113.473 34.9068L113.473 34.9021C113.482 34.7575 113.488 34.612 113.488 34.4651H113.473V31.4705C115.724 31.3541 117.519 29.4868 117.519 27.2078V23.4969C117.519 23.0771 117.178 22.7357 116.758 22.7357ZM85.7932 30.8272C83.7973 30.8272 82.1735 29.2034 82.1735 27.2074V23.4966C82.1735 23.4347 82.2237 23.3845 82.2856 23.3845H89.5042C89.5659 23.3845 89.6161 23.4348 89.6161 23.4966V27.2074C89.6161 29.2034 87.9923 30.8272 85.9964 30.8272H85.7932ZM98.5925 6.26111L98.1558 3.85974H100.891L100.454 6.26111H98.5925ZM98.2811 11.0961C98.2811 10.4391 98.8156 9.90466 99.4726 9.90466C100.13 9.90466 100.664 10.4391 100.664 11.0961C100.664 11.7531 100.13 12.2876 99.4726 12.2876C98.8157 12.2876 98.2811 11.7531 98.2811 11.0961ZM100.664 41.9588C100.664 42.6157 100.13 43.1502 99.4726 43.1502C98.8156 43.1502 98.2811 42.6157 98.2811 41.9588C98.2811 41.3019 98.8156 40.7673 99.4726 40.7673C100.13 40.7673 100.664 41.3019 100.664 41.9588ZM99.6041 30.8272H99.3421C96.715 30.8272 94.5779 28.6899 94.5779 26.0629V21.2103C94.5779 21.1146 94.6558 21.0366 94.7516 21.0366H104.195C104.29 21.0366 104.368 21.1146 104.368 21.2103V26.0629C104.368 28.6899 102.231 30.8272 99.6041 30.8272ZM116.87 27.2074C116.87 29.2034 115.246 30.8272 113.25 30.8272H113.047C111.051 30.8272 109.428 29.2034 109.428 27.2074V23.4966C109.428 23.4347 109.478 23.3845 109.539 23.3845H116.758C116.82 23.3845 116.87 23.4348 116.87 23.4966L116.87 27.2074Z"/>
</mask>
<path d="M116.758 22.7357H109.54C109.12 22.7357 108.779 23.0771 108.779 23.4966V27.2074C108.779 29.4863 110.574 31.3538 112.824 31.4701V34.8795C112.61 38.2825 109.774 40.9857 106.318 40.9857C102.723 40.9857 99.7976 38.0604 99.7976 34.4649L99.797 31.4711C102.693 31.3689 105.017 28.9831 105.017 26.0629V21.2103C105.017 20.7568 104.648 20.3878 104.195 20.3878H99.797V12.906C100.657 12.7521 101.313 12 101.313 11.0961C101.313 10.1922 100.657 9.44013 99.797 9.28622V6.9099H100.505C100.789 6.9099 101.032 6.70689 101.083 6.42718L101.542 3.90398C101.573 3.73196 101.527 3.55633 101.415 3.42207C101.303 3.28789 101.138 3.21094 100.964 3.21094H98.0829C97.9081 3.21094 97.7436 3.28789 97.6316 3.42216C97.5195 3.55642 97.4732 3.73205 97.5044 3.90416L97.9632 6.42709C98.0139 6.70689 98.2572 6.91008 98.5416 6.91008H99.1481V9.28649C98.2878 9.4404 97.6323 10.1925 97.6323 11.0964C97.6323 12.0003 98.2878 12.7523 99.1481 12.9063V20.3881H94.7514C94.2979 20.3881 93.9289 20.7571 93.9289 21.2106V26.0632C93.9289 28.983 96.2529 31.3687 99.148 31.4713V34.486C99.1367 38.0719 96.2164 40.9859 92.6278 40.9859C89.0323 40.9859 86.1071 38.0607 86.1071 34.4651V31.4735C88.4095 31.4143 90.2647 29.5243 90.2647 27.2078V23.4969C90.2647 23.0774 89.9235 22.7361 89.504 22.7361H82.2855C81.866 22.7361 81.5247 23.0774 81.5247 23.4969V27.2078C81.5247 29.4487 83.2607 31.2904 85.4584 31.4619V34.9068H85.4733C85.7024 38.6551 88.823 41.6348 92.6279 41.6348C95.5198 41.6348 98.0155 39.9128 99.1481 37.4411V40.1493C98.2878 40.3033 97.6323 41.0554 97.6323 41.9592C97.6323 42.974 98.4578 43.7995 99.4725 43.7995C100.487 43.7995 101.313 42.974 101.313 41.9592C101.313 41.0554 100.657 40.3033 99.7969 40.1493V37.4387C100.929 39.9116 103.425 41.6348 106.318 41.6348C110.123 41.6348 113.244 38.6551 113.473 34.9068L113.473 34.9021C113.482 34.7575 113.488 34.612 113.488 34.4651H113.473V31.4705C115.724 31.3541 117.519 29.4868 117.519 27.2078V23.4969C117.519 23.0771 117.178 22.7357 116.758 22.7357ZM85.7932 30.8272C83.7973 30.8272 82.1735 29.2034 82.1735 27.2074V23.4966C82.1735 23.4347 82.2237 23.3845 82.2856 23.3845H89.5042C89.5659 23.3845 89.6161 23.4348 89.6161 23.4966V27.2074C89.6161 29.2034 87.9923 30.8272 85.9964 30.8272H85.7932ZM98.5925 6.26111L98.1558 3.85974H100.891L100.454 6.26111H98.5925ZM98.2811 11.0961C98.2811 10.4391 98.8156 9.90466 99.4726 9.90466C100.13 9.90466 100.664 10.4391 100.664 11.0961C100.664 11.7531 100.13 12.2876 99.4726 12.2876C98.8157 12.2876 98.2811 11.7531 98.2811 11.0961ZM100.664 41.9588C100.664 42.6157 100.13 43.1502 99.4726 43.1502C98.8156 43.1502 98.2811 42.6157 98.2811 41.9588C98.2811 41.3019 98.8156 40.7673 99.4726 40.7673C100.13 40.7673 100.664 41.3019 100.664 41.9588ZM99.6041 30.8272H99.3421C96.715 30.8272 94.5779 28.6899 94.5779 26.0629V21.2103C94.5779 21.1146 94.6558 21.0366 94.7516 21.0366H104.195C104.29 21.0366 104.368 21.1146 104.368 21.2103V26.0629C104.368 28.6899 102.231 30.8272 99.6041 30.8272ZM116.87 27.2074C116.87 29.2034 115.246 30.8272 113.25 30.8272H113.047C111.051 30.8272 109.428 29.2034 109.428 27.2074V23.4966C109.428 23.4347 109.478 23.3845 109.539 23.3845H116.758C116.82 23.3845 116.87 23.4348 116.87 23.4966L116.87 27.2074Z" fill="#F29305" stroke="#F29305" stroke-width="1.53789" mask="url(#path-4-inside-4_58_10)"/>
<g style="mix-blend-mode:hard-light">
<path d="M116.758 20.619H109.54C109.12 20.619 108.779 20.9604 108.779 21.3799V25.0907C108.779 27.3696 110.574 29.2371 112.824 29.3534V32.7628C112.61 36.1658 109.774 38.869 106.318 38.869C102.723 38.869 99.7976 35.9437 99.7976 32.3482L99.797 29.3544C102.693 29.2522 105.017 26.8664 105.017 23.9462V19.0936C105.017 18.6401 104.648 18.2711 104.195 18.2711H99.797V10.7893C100.657 10.6354 101.313 9.88331 101.313 8.9794C101.313 8.0755 100.657 7.32343 99.797 7.16952V4.79321H100.505C100.789 4.79321 101.032 4.59019 101.083 4.31048L101.542 1.78728C101.573 1.61526 101.527 1.43963 101.415 1.30537C101.303 1.17119 101.138 1.09424 100.964 1.09424H98.0829C97.9081 1.09424 97.7436 1.17119 97.6316 1.30546C97.5195 1.43972 97.4732 1.61535 97.5044 1.78746L97.9632 4.31039C98.0139 4.59019 98.2572 4.79339 98.5416 4.79339H99.1481V7.16979C98.2878 7.3237 97.6323 8.07577 97.6323 8.97967C97.6323 9.88358 98.2878 10.6356 99.1481 10.7896V18.2714H94.7514C94.2979 18.2714 93.9289 18.6404 93.9289 19.0939V23.9465C93.9289 26.8663 96.2529 29.252 99.148 29.3546V32.3693C99.1367 35.9552 96.2164 38.8692 92.6278 38.8692C89.0323 38.8692 86.1071 35.944 86.1071 32.3484V29.3567C88.4095 29.2976 90.2647 27.4076 90.2647 25.0911V21.3802C90.2647 20.9607 89.9235 20.6194 89.504 20.6194H82.2855C81.866 20.6194 81.5247 20.9607 81.5247 21.3802V25.0911C81.5247 27.332 83.2607 29.1737 85.4584 29.3452V32.7901H85.4733C85.7024 36.5384 88.823 39.5181 92.6279 39.5181C95.5198 39.5181 98.0155 37.7961 99.1481 35.3244V38.0326C98.2878 38.1865 97.6323 38.9387 97.6323 39.8425C97.6323 40.8573 98.4578 41.6828 99.4725 41.6828C100.487 41.6828 101.313 40.8573 101.313 39.8425C101.313 38.9387 100.657 38.1865 99.7969 38.0326V35.322C100.929 37.7949 103.425 39.5181 106.318 39.5181C110.123 39.5181 113.244 36.5384 113.473 32.7901L113.473 32.7854C113.482 32.6408 113.488 32.4953 113.488 32.3484H113.473V29.3538C115.724 29.2374 117.519 27.3701 117.519 25.0911V21.3802C117.519 20.9604 117.178 20.619 116.758 20.619ZM85.7932 28.7105C83.7973 28.7105 82.1735 27.0867 82.1735 25.0907V21.3799C82.1735 21.318 82.2237 21.2678 82.2856 21.2678H89.5042C89.5659 21.2678 89.6161 21.3181 89.6161 21.3799V25.0907C89.6161 27.0867 87.9923 28.7105 85.9964 28.7105H85.7932ZM98.5925 4.14441L98.1558 1.74304H100.891L100.454 4.14441H98.5925ZM98.2811 8.9794C98.2811 8.3224 98.8156 7.78796 99.4726 7.78796C100.13 7.78796 100.664 8.3224 100.664 8.9794C100.664 9.6364 100.13 10.1709 99.4726 10.1709C98.8157 10.1709 98.2811 9.6364 98.2811 8.9794ZM100.664 39.8421C100.664 40.499 100.13 41.0335 99.4726 41.0335C98.8156 41.0335 98.2811 40.499 98.2811 39.8421C98.2811 39.1852 98.8156 38.6506 99.4726 38.6506C100.13 38.6506 100.664 39.1852 100.664 39.8421ZM99.6041 28.7105H99.3421C96.715 28.7105 94.5779 26.5732 94.5779 23.9462V19.0936C94.5779 18.9979 94.6558 18.9199 94.7516 18.9199H104.195C104.29 18.9199 104.368 18.9979 104.368 19.0936V23.9462C104.368 26.5732 102.231 28.7105 99.6041 28.7105ZM116.87 25.0907C116.87 27.0867 115.246 28.7105 113.25 28.7105H113.047C111.051 28.7105 109.428 27.0867 109.428 25.0907V21.3799C109.428 21.318 109.478 21.2678 109.539 21.2678H116.758C116.82 21.2678 116.87 21.3181 116.87 21.3799L116.87 25.0907Z" fill="#F29305"/>
<path d="M116.758 20.619H109.54C109.12 20.619 108.779 20.9604 108.779 21.3799V25.0907C108.779 27.3696 110.574 29.2371 112.824 29.3534V32.7628C112.61 36.1658 109.774 38.869 106.318 38.869C102.723 38.869 99.7976 35.9437 99.7976 32.3482L99.797 29.3544C102.693 29.2522 105.017 26.8664 105.017 23.9462V19.0936C105.017 18.6401 104.648 18.2711 104.195 18.2711H99.797V10.7893C100.657 10.6354 101.313 9.88331 101.313 8.9794C101.313 8.0755 100.657 7.32343 99.797 7.16952V4.79321H100.505C100.789 4.79321 101.032 4.59019 101.083 4.31048L101.542 1.78728C101.573 1.61526 101.527 1.43963 101.415 1.30537C101.303 1.17119 101.138 1.09424 100.964 1.09424H98.0829C97.9081 1.09424 97.7436 1.17119 97.6316 1.30546C97.5195 1.43972 97.4732 1.61535 97.5044 1.78746L97.9632 4.31039C98.0139 4.59019 98.2572 4.79339 98.5416 4.79339H99.1481V7.16979C98.2878 7.3237 97.6323 8.07577 97.6323 8.97967C97.6323 9.88358 98.2878 10.6356 99.1481 10.7896V18.2714H94.7514C94.2979 18.2714 93.9289 18.6404 93.9289 19.0939V23.9465C93.9289 26.8663 96.2529 29.252 99.148 29.3546V32.3693C99.1367 35.9552 96.2164 38.8692 92.6278 38.8692C89.0323 38.8692 86.1071 35.944 86.1071 32.3484V29.3567C88.4095 29.2976 90.2647 27.4076 90.2647 25.0911V21.3802C90.2647 20.9607 89.9235 20.6194 89.504 20.6194H82.2855C81.866 20.6194 81.5247 20.9607 81.5247 21.3802V25.0911C81.5247 27.332 83.2607 29.1737 85.4584 29.3452V32.7901H85.4733C85.7024 36.5384 88.823 39.5181 92.6279 39.5181C95.5198 39.5181 98.0155 37.7961 99.1481 35.3244V38.0326C98.2878 38.1865 97.6323 38.9387 97.6323 39.8425C97.6323 40.8573 98.4578 41.6828 99.4725 41.6828C100.487 41.6828 101.313 40.8573 101.313 39.8425C101.313 38.9387 100.657 38.1865 99.7969 38.0326V35.322C100.929 37.7949 103.425 39.5181 106.318 39.5181C110.123 39.5181 113.244 36.5384 113.473 32.7901L113.473 32.7854C113.482 32.6408 113.488 32.4953 113.488 32.3484H113.473V29.3538C115.724 29.2374 117.519 27.3701 117.519 25.0911V21.3802C117.519 20.9604 117.178 20.619 116.758 20.619ZM85.7932 28.7105C83.7973 28.7105 82.1735 27.0867 82.1735 25.0907V21.3799C82.1735 21.318 82.2237 21.2678 82.2856 21.2678H89.5042C89.5659 21.2678 89.6161 21.3181 89.6161 21.3799V25.0907C89.6161 27.0867 87.9923 28.7105 85.9964 28.7105H85.7932ZM98.5925 4.14441L98.1558 1.74304H100.891L100.454 4.14441H98.5925ZM98.2811 8.9794C98.2811 8.3224 98.8156 7.78796 99.4726 7.78796C100.13 7.78796 100.664 8.3224 100.664 8.9794C100.664 9.6364 100.13 10.1709 99.4726 10.1709C98.8157 10.1709 98.2811 9.6364 98.2811 8.9794ZM100.664 39.8421C100.664 40.499 100.13 41.0335 99.4726 41.0335C98.8156 41.0335 98.2811 40.499 98.2811 39.8421C98.2811 39.1852 98.8156 38.6506 99.4726 38.6506C100.13 38.6506 100.664 39.1852 100.664 39.8421ZM99.6041 28.7105H99.3421C96.715 28.7105 94.5779 26.5732 94.5779 23.9462V19.0936C94.5779 18.9979 94.6558 18.9199 94.7516 18.9199H104.195C104.29 18.9199 104.368 18.9979 104.368 19.0936V23.9462C104.368 26.5732 102.231 28.7105 99.6041 28.7105ZM116.87 25.0907C116.87 27.0867 115.246 28.7105 113.25 28.7105H113.047C111.051 28.7105 109.428 27.0867 109.428 25.0907V21.3799C109.428 21.318 109.478 21.2678 109.539 21.2678H116.758C116.82 21.2678 116.87 21.3181 116.87 21.3799L116.87 25.0907Z" stroke="#F29305" stroke-width="1.05834"/>
<path d="M116.758 20.619H109.54C109.12 20.619 108.779 20.9604 108.779 21.3799V25.0907C108.779 27.3696 110.574 29.2371 112.824 29.3534V32.7628C112.61 36.1658 109.774 38.869 106.318 38.869C102.723 38.869 99.7976 35.9437 99.7976 32.3482L99.797 29.3544C102.693 29.2522 105.017 26.8664 105.017 23.9462V19.0936C105.017 18.6401 104.648 18.2711 104.195 18.2711H99.797V10.7893C100.657 10.6354 101.313 9.88331 101.313 8.9794C101.313 8.0755 100.657 7.32343 99.797 7.16952V4.79321H100.505C100.789 4.79321 101.032 4.59019 101.083 4.31048L101.542 1.78728C101.573 1.61526 101.527 1.43963 101.415 1.30537C101.303 1.17119 101.138 1.09424 100.964 1.09424H98.0829C97.9081 1.09424 97.7436 1.17119 97.6316 1.30546C97.5195 1.43972 97.4732 1.61535 97.5044 1.78746L97.9632 4.31039C98.0139 4.59019 98.2572 4.79339 98.5416 4.79339H99.1481V7.16979C98.2878 7.3237 97.6323 8.07577 97.6323 8.97967C97.6323 9.88358 98.2878 10.6356 99.1481 10.7896V18.2714H94.7514C94.2979 18.2714 93.9289 18.6404 93.9289 19.0939V23.9465C93.9289 26.8663 96.2529 29.252 99.148 29.3546V32.3693C99.1367 35.9552 96.2164 38.8692 92.6278 38.8692C89.0323 38.8692 86.1071 35.944 86.1071 32.3484V29.3567C88.4095 29.2976 90.2647 27.4076 90.2647 25.0911V21.3802C90.2647 20.9607 89.9235 20.6194 89.504 20.6194H82.2855C81.866 20.6194 81.5247 20.9607 81.5247 21.3802V25.0911C81.5247 27.332 83.2607 29.1737 85.4584 29.3452V32.7901H85.4733C85.7024 36.5384 88.823 39.5181 92.6279 39.5181C95.5198 39.5181 98.0155 37.7961 99.1481 35.3244V38.0326C98.2878 38.1865 97.6323 38.9387 97.6323 39.8425C97.6323 40.8573 98.4578 41.6828 99.4725 41.6828C100.487 41.6828 101.313 40.8573 101.313 39.8425C101.313 38.9387 100.657 38.1865 99.7969 38.0326V35.322C100.929 37.7949 103.425 39.5181 106.318 39.5181C110.123 39.5181 113.244 36.5384 113.473 32.7901L113.473 32.7854C113.482 32.6408 113.488 32.4953 113.488 32.3484H113.473V29.3538C115.724 29.2374 117.519 27.3701 117.519 25.0911V21.3802C117.519 20.9604 117.178 20.619 116.758 20.619ZM85.7932 28.7105C83.7973 28.7105 82.1735 27.0867 82.1735 25.0907V21.3799C82.1735 21.318 82.2237 21.2678 82.2856 21.2678H89.5042C89.5659 21.2678 89.6161 21.3181 89.6161 21.3799V25.0907C89.6161 27.0867 87.9923 28.7105 85.9964 28.7105H85.7932ZM98.5925 4.14441L98.1558 1.74304H100.891L100.454 4.14441H98.5925ZM98.2811 8.9794C98.2811 8.3224 98.8156 7.78796 99.4726 7.78796C100.13 7.78796 100.664 8.3224 100.664 8.9794C100.664 9.6364 100.13 10.1709 99.4726 10.1709C98.8157 10.1709 98.2811 9.6364 98.2811 8.9794ZM100.664 39.8421C100.664 40.499 100.13 41.0335 99.4726 41.0335C98.8156 41.0335 98.2811 40.499 98.2811 39.8421C98.2811 39.1852 98.8156 38.6506 99.4726 38.6506C100.13 38.6506 100.664 39.1852 100.664 39.8421ZM99.6041 28.7105H99.3421C96.715 28.7105 94.5779 26.5732 94.5779 23.9462V19.0936C94.5779 18.9979 94.6558 18.9199 94.7516 18.9199H104.195C104.29 18.9199 104.368 18.9979 104.368 19.0936V23.9462C104.368 26.5732 102.231 28.7105 99.6041 28.7105ZM116.87 25.0907C116.87 27.0867 115.246 28.7105 113.25 28.7105H113.047C111.051 28.7105 109.428 27.0867 109.428 25.0907V21.3799C109.428 21.318 109.478 21.2678 109.539 21.2678H116.758C116.82 21.2678 116.87 21.3181 116.87 21.3799L116.87 25.0907Z" stroke="#F29305" stroke-width="1.05834"/>
<path d="M116.758 20.619H109.54C109.12 20.619 108.779 20.9604 108.779 21.3799V25.0907C108.779 27.3696 110.574 29.2371 112.824 29.3534V32.7628C112.61 36.1658 109.774 38.869 106.318 38.869C102.723 38.869 99.7976 35.9437 99.7976 32.3482L99.797 29.3544C102.693 29.2522 105.017 26.8664 105.017 23.9462V19.0936C105.017 18.6401 104.648 18.2711 104.195 18.2711H99.797V10.7893C100.657 10.6354 101.313 9.88331 101.313 8.9794C101.313 8.0755 100.657 7.32343 99.797 7.16952V4.79321H100.505C100.789 4.79321 101.032 4.59019 101.083 4.31048L101.542 1.78728C101.573 1.61526 101.527 1.43963 101.415 1.30537C101.303 1.17119 101.138 1.09424 100.964 1.09424H98.0829C97.9081 1.09424 97.7436 1.17119 97.6316 1.30546C97.5195 1.43972 97.4732 1.61535 97.5044 1.78746L97.9632 4.31039C98.0139 4.59019 98.2572 4.79339 98.5416 4.79339H99.1481V7.16979C98.2878 7.3237 97.6323 8.07577 97.6323 8.97967C97.6323 9.88358 98.2878 10.6356 99.1481 10.7896V18.2714H94.7514C94.2979 18.2714 93.9289 18.6404 93.9289 19.0939V23.9465C93.9289 26.8663 96.2529 29.252 99.148 29.3546V32.3693C99.1367 35.9552 96.2164 38.8692 92.6278 38.8692C89.0323 38.8692 86.1071 35.944 86.1071 32.3484V29.3567C88.4095 29.2976 90.2647 27.4076 90.2647 25.0911V21.3802C90.2647 20.9607 89.9235 20.6194 89.504 20.6194H82.2855C81.866 20.6194 81.5247 20.9607 81.5247 21.3802V25.0911C81.5247 27.332 83.2607 29.1737 85.4584 29.3452V32.7901H85.4733C85.7024 36.5384 88.823 39.5181 92.6279 39.5181C95.5198 39.5181 98.0155 37.7961 99.1481 35.3244V38.0326C98.2878 38.1865 97.6323 38.9387 97.6323 39.8425C97.6323 40.8573 98.4578 41.6828 99.4725 41.6828C100.487 41.6828 101.313 40.8573 101.313 39.8425C101.313 38.9387 100.657 38.1865 99.7969 38.0326V35.322C100.929 37.7949 103.425 39.5181 106.318 39.5181C110.123 39.5181 113.244 36.5384 113.473 32.7901L113.473 32.7854C113.482 32.6408 113.488 32.4953 113.488 32.3484H113.473V29.3538C115.724 29.2374 117.519 27.3701 117.519 25.0911V21.3802C117.519 20.9604 117.178 20.619 116.758 20.619ZM85.7932 28.7105C83.7973 28.7105 82.1735 27.0867 82.1735 25.0907V21.3799C82.1735 21.318 82.2237 21.2678 82.2856 21.2678H89.5042C89.5659 21.2678 89.6161 21.3181 89.6161 21.3799V25.0907C89.6161 27.0867 87.9923 28.7105 85.9964 28.7105H85.7932ZM98.5925 4.14441L98.1558 1.74304H100.891L100.454 4.14441H98.5925ZM98.2811 8.9794C98.2811 8.3224 98.8156 7.78796 99.4726 7.78796C100.13 7.78796 100.664 8.3224 100.664 8.9794C100.664 9.6364 100.13 10.1709 99.4726 10.1709C98.8157 10.1709 98.2811 9.6364 98.2811 8.9794ZM100.664 39.8421C100.664 40.499 100.13 41.0335 99.4726 41.0335C98.8156 41.0335 98.2811 40.499 98.2811 39.8421C98.2811 39.1852 98.8156 38.6506 99.4726 38.6506C100.13 38.6506 100.664 39.1852 100.664 39.8421ZM99.6041 28.7105H99.3421C96.715 28.7105 94.5779 26.5732 94.5779 23.9462V19.0936C94.5779 18.9979 94.6558 18.9199 94.7516 18.9199H104.195C104.29 18.9199 104.368 18.9979 104.368 19.0936V23.9462C104.368 26.5732 102.231 28.7105 99.6041 28.7105ZM116.87 25.0907C116.87 27.0867 115.246 28.7105 113.25 28.7105H113.047C111.051 28.7105 109.428 27.0867 109.428 25.0907V21.3799C109.428 21.318 109.478 21.2678 109.539 21.2678H116.758C116.82 21.2678 116.87 21.3181 116.87 21.3799L116.87 25.0907Z" stroke="#F29305" stroke-width="1.05834"/>
<path d="M116.758 20.619H109.54C109.12 20.619 108.779 20.9604 108.779 21.3799V25.0907C108.779 27.3696 110.574 29.2371 112.824 29.3534V32.7628C112.61 36.1658 109.774 38.869 106.318 38.869C102.723 38.869 99.7976 35.9437 99.7976 32.3482L99.797 29.3544C102.693 29.2522 105.017 26.8664 105.017 23.9462V19.0936C105.017 18.6401 104.648 18.2711 104.195 18.2711H99.797V10.7893C100.657 10.6354 101.313 9.88331 101.313 8.9794C101.313 8.0755 100.657 7.32343 99.797 7.16952V4.79321H100.505C100.789 4.79321 101.032 4.59019 101.083 4.31048L101.542 1.78728C101.573 1.61526 101.527 1.43963 101.415 1.30537C101.303 1.17119 101.138 1.09424 100.964 1.09424H98.0829C97.9081 1.09424 97.7436 1.17119 97.6316 1.30546C97.5195 1.43972 97.4732 1.61535 97.5044 1.78746L97.9632 4.31039C98.0139 4.59019 98.2572 4.79339 98.5416 4.79339H99.1481V7.16979C98.2878 7.3237 97.6323 8.07577 97.6323 8.97967C97.6323 9.88358 98.2878 10.6356 99.1481 10.7896V18.2714H94.7514C94.2979 18.2714 93.9289 18.6404 93.9289 19.0939V23.9465C93.9289 26.8663 96.2529 29.252 99.148 29.3546V32.3693C99.1367 35.9552 96.2164 38.8692 92.6278 38.8692C89.0323 38.8692 86.1071 35.944 86.1071 32.3484V29.3567C88.4095 29.2976 90.2647 27.4076 90.2647 25.0911V21.3802C90.2647 20.9607 89.9235 20.6194 89.504 20.6194H82.2855C81.866 20.6194 81.5247 20.9607 81.5247 21.3802V25.0911C81.5247 27.332 83.2607 29.1737 85.4584 29.3452V32.7901H85.4733C85.7024 36.5384 88.823 39.5181 92.6279 39.5181C95.5198 39.5181 98.0155 37.7961 99.1481 35.3244V38.0326C98.2878 38.1865 97.6323 38.9387 97.6323 39.8425C97.6323 40.8573 98.4578 41.6828 99.4725 41.6828C100.487 41.6828 101.313 40.8573 101.313 39.8425C101.313 38.9387 100.657 38.1865 99.7969 38.0326V35.322C100.929 37.7949 103.425 39.5181 106.318 39.5181C110.123 39.5181 113.244 36.5384 113.473 32.7901L113.473 32.7854C113.482 32.6408 113.488 32.4953 113.488 32.3484H113.473V29.3538C115.724 29.2374 117.519 27.3701 117.519 25.0911V21.3802C117.519 20.9604 117.178 20.619 116.758 20.619ZM85.7932 28.7105C83.7973 28.7105 82.1735 27.0867 82.1735 25.0907V21.3799C82.1735 21.318 82.2237 21.2678 82.2856 21.2678H89.5042C89.5659 21.2678 89.6161 21.3181 89.6161 21.3799V25.0907C89.6161 27.0867 87.9923 28.7105 85.9964 28.7105H85.7932ZM98.5925 4.14441L98.1558 1.74304H100.891L100.454 4.14441H98.5925ZM98.2811 8.9794C98.2811 8.3224 98.8156 7.78796 99.4726 7.78796C100.13 7.78796 100.664 8.3224 100.664 8.9794C100.664 9.6364 100.13 10.1709 99.4726 10.1709C98.8157 10.1709 98.2811 9.6364 98.2811 8.9794ZM100.664 39.8421C100.664 40.499 100.13 41.0335 99.4726 41.0335C98.8156 41.0335 98.2811 40.499 98.2811 39.8421C98.2811 39.1852 98.8156 38.6506 99.4726 38.6506C100.13 38.6506 100.664 39.1852 100.664 39.8421ZM99.6041 28.7105H99.3421C96.715 28.7105 94.5779 26.5732 94.5779 23.9462V19.0936C94.5779 18.9979 94.6558 18.9199 94.7516 18.9199H104.195C104.29 18.9199 104.368 18.9979 104.368 19.0936V23.9462C104.368 26.5732 102.231 28.7105 99.6041 28.7105ZM116.87 25.0907C116.87 27.0867 115.246 28.7105 113.25 28.7105H113.047C111.051 28.7105 109.428 27.0867 109.428 25.0907V21.3799C109.428 21.318 109.478 21.2678 109.539 21.2678H116.758C116.82 21.2678 116.87 21.3181 116.87 21.3799L116.87 25.0907Z" stroke="#F29305" stroke-width="1.05834"/>
<path d="M116.758 20.619H109.54C109.12 20.619 108.779 20.9604 108.779 21.3799V25.0907C108.779 27.3696 110.574 29.2371 112.824 29.3534V32.7628C112.61 36.1658 109.774 38.869 106.318 38.869C102.723 38.869 99.7976 35.9437 99.7976 32.3482L99.797 29.3544C102.693 29.2522 105.017 26.8664 105.017 23.9462V19.0936C105.017 18.6401 104.648 18.2711 104.195 18.2711H99.797V10.7893C100.657 10.6354 101.313 9.88331 101.313 8.9794C101.313 8.0755 100.657 7.32343 99.797 7.16952V4.79321H100.505C100.789 4.79321 101.032 4.59019 101.083 4.31048L101.542 1.78728C101.573 1.61526 101.527 1.43963 101.415 1.30537C101.303 1.17119 101.138 1.09424 100.964 1.09424H98.0829C97.9081 1.09424 97.7436 1.17119 97.6316 1.30546C97.5195 1.43972 97.4732 1.61535 97.5044 1.78746L97.9632 4.31039C98.0139 4.59019 98.2572 4.79339 98.5416 4.79339H99.1481V7.16979C98.2878 7.3237 97.6323 8.07577 97.6323 8.97967C97.6323 9.88358 98.2878 10.6356 99.1481 10.7896V18.2714H94.7514C94.2979 18.2714 93.9289 18.6404 93.9289 19.0939V23.9465C93.9289 26.8663 96.2529 29.252 99.148 29.3546V32.3693C99.1367 35.9552 96.2164 38.8692 92.6278 38.8692C89.0323 38.8692 86.1071 35.944 86.1071 32.3484V29.3567C88.4095 29.2976 90.2647 27.4076 90.2647 25.0911V21.3802C90.2647 20.9607 89.9235 20.6194 89.504 20.6194H82.2855C81.866 20.6194 81.5247 20.9607 81.5247 21.3802V25.0911C81.5247 27.332 83.2607 29.1737 85.4584 29.3452V32.7901H85.4733C85.7024 36.5384 88.823 39.5181 92.6279 39.5181C95.5198 39.5181 98.0155 37.7961 99.1481 35.3244V38.0326C98.2878 38.1865 97.6323 38.9387 97.6323 39.8425C97.6323 40.8573 98.4578 41.6828 99.4725 41.6828C100.487 41.6828 101.313 40.8573 101.313 39.8425C101.313 38.9387 100.657 38.1865 99.7969 38.0326V35.322C100.929 37.7949 103.425 39.5181 106.318 39.5181C110.123 39.5181 113.244 36.5384 113.473 32.7901L113.473 32.7854C113.482 32.6408 113.488 32.4953 113.488 32.3484H113.473V29.3538C115.724 29.2374 117.519 27.3701 117.519 25.0911V21.3802C117.519 20.9604 117.178 20.619 116.758 20.619ZM85.7932 28.7105C83.7973 28.7105 82.1735 27.0867 82.1735 25.0907V21.3799C82.1735 21.318 82.2237 21.2678 82.2856 21.2678H89.5042C89.5659 21.2678 89.6161 21.3181 89.6161 21.3799V25.0907C89.6161 27.0867 87.9923 28.7105 85.9964 28.7105H85.7932ZM98.5925 4.14441L98.1558 1.74304H100.891L100.454 4.14441H98.5925ZM98.2811 8.9794C98.2811 8.3224 98.8156 7.78796 99.4726 7.78796C100.13 7.78796 100.664 8.3224 100.664 8.9794C100.664 9.6364 100.13 10.1709 99.4726 10.1709C98.8157 10.1709 98.2811 9.6364 98.2811 8.9794ZM100.664 39.8421C100.664 40.499 100.13 41.0335 99.4726 41.0335C98.8156 41.0335 98.2811 40.499 98.2811 39.8421C98.2811 39.1852 98.8156 38.6506 99.4726 38.6506C100.13 38.6506 100.664 39.1852 100.664 39.8421ZM99.6041 28.7105H99.3421C96.715 28.7105 94.5779 26.5732 94.5779 23.9462V19.0936C94.5779 18.9979 94.6558 18.9199 94.7516 18.9199H104.195C104.29 18.9199 104.368 18.9979 104.368 19.0936V23.9462C104.368 26.5732 102.231 28.7105 99.6041 28.7105ZM116.87 25.0907C116.87 27.0867 115.246 28.7105 113.25 28.7105H113.047C111.051 28.7105 109.428 27.0867 109.428 25.0907V21.3799C109.428 21.318 109.478 21.2678 109.539 21.2678H116.758C116.82 21.2678 116.87 21.3181 116.87 21.3799L116.87 25.0907Z" stroke="#F29305" stroke-width="1.05834"/>
<path d="M116.758 20.619H109.54C109.12 20.619 108.779 20.9604 108.779 21.3799V25.0907C108.779 27.3696 110.574 29.2371 112.824 29.3534V32.7628C112.61 36.1658 109.774 38.869 106.318 38.869C102.723 38.869 99.7976 35.9437 99.7976 32.3482L99.797 29.3544C102.693 29.2522 105.017 26.8664 105.017 23.9462V19.0936C105.017 18.6401 104.648 18.2711 104.195 18.2711H99.797V10.7893C100.657 10.6354 101.313 9.88331 101.313 8.9794C101.313 8.0755 100.657 7.32343 99.797 7.16952V4.79321H100.505C100.789 4.79321 101.032 4.59019 101.083 4.31048L101.542 1.78728C101.573 1.61526 101.527 1.43963 101.415 1.30537C101.303 1.17119 101.138 1.09424 100.964 1.09424H98.0829C97.9081 1.09424 97.7436 1.17119 97.6316 1.30546C97.5195 1.43972 97.4732 1.61535 97.5044 1.78746L97.9632 4.31039C98.0139 4.59019 98.2572 4.79339 98.5416 4.79339H99.1481V7.16979C98.2878 7.3237 97.6323 8.07577 97.6323 8.97967C97.6323 9.88358 98.2878 10.6356 99.1481 10.7896V18.2714H94.7514C94.2979 18.2714 93.9289 18.6404 93.9289 19.0939V23.9465C93.9289 26.8663 96.2529 29.252 99.148 29.3546V32.3693C99.1367 35.9552 96.2164 38.8692 92.6278 38.8692C89.0323 38.8692 86.1071 35.944 86.1071 32.3484V29.3567C88.4095 29.2976 90.2647 27.4076 90.2647 25.0911V21.3802C90.2647 20.9607 89.9235 20.6194 89.504 20.6194H82.2855C81.866 20.6194 81.5247 20.9607 81.5247 21.3802V25.0911C81.5247 27.332 83.2607 29.1737 85.4584 29.3452V32.7901H85.4733C85.7024 36.5384 88.823 39.5181 92.6279 39.5181C95.5198 39.5181 98.0155 37.7961 99.1481 35.3244V38.0326C98.2878 38.1865 97.6323 38.9387 97.6323 39.8425C97.6323 40.8573 98.4578 41.6828 99.4725 41.6828C100.487 41.6828 101.313 40.8573 101.313 39.8425C101.313 38.9387 100.657 38.1865 99.7969 38.0326V35.322C100.929 37.7949 103.425 39.5181 106.318 39.5181C110.123 39.5181 113.244 36.5384 113.473 32.7901L113.473 32.7854C113.482 32.6408 113.488 32.4953 113.488 32.3484H113.473V29.3538C115.724 29.2374 117.519 27.3701 117.519 25.0911V21.3802C117.519 20.9604 117.178 20.619 116.758 20.619ZM85.7932 28.7105C83.7973 28.7105 82.1735 27.0867 82.1735 25.0907V21.3799C82.1735 21.318 82.2237 21.2678 82.2856 21.2678H89.5042C89.5659 21.2678 89.6161 21.3181 89.6161 21.3799V25.0907C89.6161 27.0867 87.9923 28.7105 85.9964 28.7105H85.7932ZM98.5925 4.14441L98.1558 1.74304H100.891L100.454 4.14441H98.5925ZM98.2811 8.9794C98.2811 8.3224 98.8156 7.78796 99.4726 7.78796C100.13 7.78796 100.664 8.3224 100.664 8.9794C100.664 9.6364 100.13 10.1709 99.4726 10.1709C98.8157 10.1709 98.2811 9.6364 98.2811 8.9794ZM100.664 39.8421C100.664 40.499 100.13 41.0335 99.4726 41.0335C98.8156 41.0335 98.2811 40.499 98.2811 39.8421C98.2811 39.1852 98.8156 38.6506 99.4726 38.6506C100.13 38.6506 100.664 39.1852 100.664 39.8421ZM99.6041 28.7105H99.3421C96.715 28.7105 94.5779 26.5732 94.5779 23.9462V19.0936C94.5779 18.9979 94.6558 18.9199 94.7516 18.9199H104.195C104.29 18.9199 104.368 18.9979 104.368 19.0936V23.9462C104.368 26.5732 102.231 28.7105 99.6041 28.7105ZM116.87 25.0907C116.87 27.0867 115.246 28.7105 113.25 28.7105H113.047C111.051 28.7105 109.428 27.0867 109.428 25.0907V21.3799C109.428 21.318 109.478 21.2678 109.539 21.2678H116.758C116.82 21.2678 116.87 21.3181 116.87 21.3799L116.87 25.0907Z" stroke="#F29305" stroke-width="1.05834"/>
<path d="M116.758 20.619H109.54C109.12 20.619 108.779 20.9604 108.779 21.3799V25.0907C108.779 27.3696 110.574 29.2371 112.824 29.3534V32.7628C112.61 36.1658 109.774 38.869 106.318 38.869C102.723 38.869 99.7976 35.9437 99.7976 32.3482L99.797 29.3544C102.693 29.2522 105.017 26.8664 105.017 23.9462V19.0936C105.017 18.6401 104.648 18.2711 104.195 18.2711H99.797V10.7893C100.657 10.6354 101.313 9.88331 101.313 8.9794C101.313 8.0755 100.657 7.32343 99.797 7.16952V4.79321H100.505C100.789 4.79321 101.032 4.59019 101.083 4.31048L101.542 1.78728C101.573 1.61526 101.527 1.43963 101.415 1.30537C101.303 1.17119 101.138 1.09424 100.964 1.09424H98.0829C97.9081 1.09424 97.7436 1.17119 97.6316 1.30546C97.5195 1.43972 97.4732 1.61535 97.5044 1.78746L97.9632 4.31039C98.0139 4.59019 98.2572 4.79339 98.5416 4.79339H99.1481V7.16979C98.2878 7.3237 97.6323 8.07577 97.6323 8.97967C97.6323 9.88358 98.2878 10.6356 99.1481 10.7896V18.2714H94.7514C94.2979 18.2714 93.9289 18.6404 93.9289 19.0939V23.9465C93.9289 26.8663 96.2529 29.252 99.148 29.3546V32.3693C99.1367 35.9552 96.2164 38.8692 92.6278 38.8692C89.0323 38.8692 86.1071 35.944 86.1071 32.3484V29.3567C88.4095 29.2976 90.2647 27.4076 90.2647 25.0911V21.3802C90.2647 20.9607 89.9235 20.6194 89.504 20.6194H82.2855C81.866 20.6194 81.5247 20.9607 81.5247 21.3802V25.0911C81.5247 27.332 83.2607 29.1737 85.4584 29.3452V32.7901H85.4733C85.7024 36.5384 88.823 39.5181 92.6279 39.5181C95.5198 39.5181 98.0155 37.7961 99.1481 35.3244V38.0326C98.2878 38.1865 97.6323 38.9387 97.6323 39.8425C97.6323 40.8573 98.4578 41.6828 99.4725 41.6828C100.487 41.6828 101.313 40.8573 101.313 39.8425C101.313 38.9387 100.657 38.1865 99.7969 38.0326V35.322C100.929 37.7949 103.425 39.5181 106.318 39.5181C110.123 39.5181 113.244 36.5384 113.473 32.7901L113.473 32.7854C113.482 32.6408 113.488 32.4953 113.488 32.3484H113.473V29.3538C115.724 29.2374 117.519 27.3701 117.519 25.0911V21.3802C117.519 20.9604 117.178 20.619 116.758 20.619ZM85.7932 28.7105C83.7973 28.7105 82.1735 27.0867 82.1735 25.0907V21.3799C82.1735 21.318 82.2237 21.2678 82.2856 21.2678H89.5042C89.5659 21.2678 89.6161 21.3181 89.6161 21.3799V25.0907C89.6161 27.0867 87.9923 28.7105 85.9964 28.7105H85.7932ZM98.5925 4.14441L98.1558 1.74304H100.891L100.454 4.14441H98.5925ZM98.2811 8.9794C98.2811 8.3224 98.8156 7.78796 99.4726 7.78796C100.13 7.78796 100.664 8.3224 100.664 8.9794C100.664 9.6364 100.13 10.1709 99.4726 10.1709C98.8157 10.1709 98.2811 9.6364 98.2811 8.9794ZM100.664 39.8421C100.664 40.499 100.13 41.0335 99.4726 41.0335C98.8156 41.0335 98.2811 40.499 98.2811 39.8421C98.2811 39.1852 98.8156 38.6506 99.4726 38.6506C100.13 38.6506 100.664 39.1852 100.664 39.8421ZM99.6041 28.7105H99.3421C96.715 28.7105 94.5779 26.5732 94.5779 23.9462V19.0936C94.5779 18.9979 94.6558 18.9199 94.7516 18.9199H104.195C104.29 18.9199 104.368 18.9979 104.368 19.0936V23.9462C104.368 26.5732 102.231 28.7105 99.6041 28.7105ZM116.87 25.0907C116.87 27.0867 115.246 28.7105 113.25 28.7105H113.047C111.051 28.7105 109.428 27.0867 109.428 25.0907V21.3799C109.428 21.318 109.478 21.2678 109.539 21.2678H116.758C116.82 21.2678 116.87 21.3181 116.87 21.3799L116.87 25.0907Z" stroke="black" stroke-opacity="0.2" stroke-width="1.05834"/>
</g>
<path d="M75.7255 48.8153C75.6909 48.4916 75.5451 48.2395 75.2881 48.059C75.0335 47.8786 74.7023 47.7884 74.2945 47.7884C74.0078 47.7884 73.7619 47.8317 73.5567 47.9182C73.3516 48.0047 73.1946 48.1221 73.0859 48.2704C72.9771 48.4187 72.9215 48.588 72.9191 48.7783C72.9191 48.9365 72.9549 49.0736 73.0266 49.1898C73.1007 49.306 73.2008 49.4048 73.3269 49.4864C73.4529 49.5655 73.5926 49.6322 73.7458 49.6866C73.899 49.741 74.0535 49.7867 74.2092 49.8238L74.921 50.0017C75.2077 50.0684 75.4833 50.1587 75.7478 50.2723C76.0147 50.386 76.2532 50.5294 76.4633 50.7024C76.6759 50.8754 76.8439 51.0843 76.9675 51.3289C77.0911 51.5736 77.1529 51.8603 77.1529 52.1891C77.1529 52.6339 77.0392 53.0257 76.8118 53.3643C76.5844 53.7004 76.2557 53.9637 75.8256 54.154C75.3981 54.3418 74.8803 54.4357 74.2723 54.4357C73.6815 54.4357 73.1687 54.3443 72.7337 54.1614C72.3012 53.9785 71.9626 53.7116 71.7179 53.3606C71.4757 53.0096 71.3447 52.582 71.3249 52.0778H72.6781C72.6979 52.3423 72.7794 52.5623 72.9228 52.7378C73.0661 52.9132 73.2527 53.0442 73.4826 53.1307C73.7149 53.2172 73.9744 53.2605 74.2611 53.2605C74.5602 53.2605 74.8222 53.216 75.0471 53.127C75.2745 53.0356 75.4524 52.9095 75.581 52.7489C75.7095 52.5857 75.775 52.3954 75.7774 52.1779C75.775 51.9802 75.7169 51.8171 75.6032 51.6886C75.4895 51.5576 75.3301 51.4488 75.1249 51.3623C74.9223 51.2733 74.685 51.1942 74.4131 51.125L73.5493 50.9026C72.924 50.7419 72.4297 50.4985 72.0664 50.1722C71.7055 49.8435 71.5251 49.4073 71.5251 48.8635C71.5251 48.4162 71.6462 48.0244 71.8884 47.6883C72.1331 47.3522 72.4655 47.0914 72.8857 46.906C73.3059 46.7182 73.7816 46.6243 74.313 46.6243C74.8518 46.6243 75.3239 46.7182 75.7293 46.906C76.1371 47.0914 76.4571 47.3497 76.6895 47.6809C76.9218 48.0096 77.0417 48.3878 77.0491 48.8153H75.7255ZM78.3198 54.3208V48.6263H79.6619V54.3208H78.3198ZM78.9945 47.8181C78.782 47.8181 78.5991 47.7476 78.4458 47.6067C78.2926 47.4634 78.216 47.2916 78.216 47.0914C78.216 46.8887 78.2926 46.717 78.4458 46.5761C78.5991 46.4327 78.782 46.3611 78.9945 46.3611C79.2096 46.3611 79.3924 46.4327 79.5432 46.5761C79.6965 46.717 79.7731 46.8887 79.7731 47.0914C79.7731 47.2916 79.6965 47.4634 79.5432 47.6067C79.3924 47.7476 79.2096 47.8181 78.9945 47.8181ZM82.384 50.9842V54.3208H81.0419V48.6263H82.3247V49.5939H82.3914C82.5224 49.2751 82.7312 49.0217 83.018 48.8339C83.3071 48.646 83.6643 48.5521 84.0894 48.5521C84.4824 48.5521 84.8247 48.6362 85.1163 48.8042C85.4104 48.9723 85.6378 49.2157 85.7985 49.5346C85.9616 49.8534 86.0419 50.2402 86.0395 50.695V54.3208H84.6974V50.9026C84.6974 50.522 84.5985 50.2241 84.4008 50.0091C84.2055 49.7941 83.9349 49.6866 83.5889 49.6866C83.3541 49.6866 83.1452 49.7385 82.9623 49.8423C82.7819 49.9436 82.6398 50.0907 82.536 50.2835C82.4347 50.4763 82.384 50.7098 82.384 50.9842ZM89.8877 54.432C89.3193 54.432 88.8311 54.3072 88.4233 54.0576C88.018 53.8079 87.7053 53.4632 87.4853 53.0232C87.2678 52.5808 87.1591 52.0717 87.1591 51.4958C87.1591 50.9174 87.2703 50.407 87.4928 49.9646C87.7152 49.5197 88.0291 49.1737 88.4344 48.9266C88.8422 48.6769 89.3242 48.5521 89.8803 48.5521C90.3425 48.5521 90.7515 48.6374 91.1074 48.8079C91.4658 48.976 91.7513 49.2145 91.9639 49.5235C92.1764 49.8299 92.2975 50.1883 92.3272 50.5986H91.0444C90.9925 50.3242 90.8689 50.0956 90.6737 49.9127C90.4809 49.7274 90.2226 49.6347 89.8988 49.6347C89.6245 49.6347 89.3835 49.7088 89.1759 49.8571C88.9683 50.0029 88.8064 50.213 88.6902 50.4874C88.5765 50.7617 88.5197 51.0904 88.5197 51.4735C88.5197 51.8616 88.5765 52.1952 88.6902 52.4745C88.8039 52.7513 88.9633 52.9651 89.1685 53.1159C89.3761 53.2642 89.6196 53.3383 89.8988 53.3383C90.0966 53.3383 90.2733 53.3013 90.429 53.2271C90.5872 53.1505 90.7194 53.0405 90.8257 52.8972C90.932 52.7538 91.0049 52.5796 91.0444 52.3744H92.3272C92.295 52.7773 92.1764 53.1344 91.9713 53.4459C91.7661 53.7548 91.4868 53.997 91.1334 54.1725C90.78 54.3455 90.3647 54.432 89.8877 54.432ZM95.9502 54.432C95.3793 54.432 94.8862 54.3134 94.471 54.0761C94.0582 53.8364 93.7406 53.4978 93.5182 53.0603C93.2957 52.6204 93.1845 52.1026 93.1845 51.5069C93.1845 50.9211 93.2957 50.407 93.5182 49.9646C93.7431 49.5197 94.057 49.1737 94.4598 48.9266C94.8627 48.6769 95.336 48.5521 95.8798 48.5521C96.2307 48.5521 96.5619 48.609 96.8733 48.7227C97.1872 48.8339 97.4641 49.0069 97.7038 49.2417C97.946 49.4765 98.1363 49.7756 98.2747 50.1389C98.4131 50.4997 98.4823 50.9298 98.4823 51.429V51.8406H93.8148V50.936H97.1959C97.1934 50.6789 97.1378 50.4503 97.0291 50.2501C96.9203 50.0474 96.7683 49.888 96.5731 49.7718C96.3803 49.6557 96.1554 49.5976 95.8983 49.5976C95.624 49.5976 95.383 49.6643 95.1754 49.7978C94.9678 49.9288 94.8059 50.1018 94.6897 50.3168C94.576 50.5294 94.5179 50.763 94.5155 51.0175V51.8072C94.5155 52.1384 94.576 52.4226 94.6971 52.6599C94.8182 52.8947 94.9875 53.0751 95.205 53.2012C95.4225 53.3248 95.6771 53.3865 95.9687 53.3865C96.164 53.3865 96.3407 53.3594 96.4989 53.305C96.6571 53.2481 96.7943 53.1653 96.9104 53.0566C97.0266 52.9478 97.1143 52.8131 97.1736 52.6525L98.4267 52.7934C98.3476 53.1246 98.1969 53.4137 97.9744 53.6609C97.7545 53.9056 97.4727 54.0959 97.1292 54.2318C96.7856 54.3653 96.3926 54.432 95.9502 54.432ZM107.541 47.3935V54.3208H106.286V48.6146H106.245L104.625 49.6496V48.4996L106.347 47.3935H107.541ZM111.704 47.2988C112.036 47.301 112.358 47.3597 112.672 47.4747C112.987 47.5874 113.272 47.7723 113.524 48.0294C113.777 48.2842 113.977 48.6258 114.126 49.0543C114.275 49.4827 114.349 50.0127 114.349 50.6441C114.352 51.2394 114.289 51.7715 114.16 52.2406C114.034 52.7074 113.852 53.102 113.615 53.4244C113.379 53.7469 113.093 53.9927 112.76 54.1618C112.426 54.3309 112.051 54.4155 111.633 54.4155C111.196 54.4155 110.808 54.3298 110.47 54.1584C110.134 53.9871 109.862 53.7525 109.655 53.4549C109.447 53.1572 109.32 52.8167 109.272 52.4334H110.507C110.57 52.7085 110.699 52.9272 110.893 53.0896C111.089 53.2497 111.336 53.3297 111.633 53.3297C112.114 53.3297 112.483 53.1212 112.743 52.704C113.002 52.2868 113.132 51.7073 113.132 50.9654H113.084C112.974 51.1638 112.831 51.3352 112.655 51.4795C112.479 51.6216 112.279 51.731 112.056 51.8076C111.835 51.8843 111.601 51.9226 111.353 51.9226C110.947 51.9226 110.581 51.8257 110.257 51.6317C109.934 51.4378 109.678 51.1717 109.489 50.8335C109.302 50.4952 109.207 50.1085 109.205 49.6733C109.205 49.2223 109.308 48.8175 109.516 48.459C109.726 48.0982 110.018 47.8141 110.392 47.6066C110.766 47.3969 111.204 47.2943 111.704 47.2988ZM111.708 48.3135C111.464 48.3135 111.244 48.3733 111.048 48.4928C110.854 48.6101 110.701 48.7702 110.588 48.9731C110.478 49.1738 110.422 49.3982 110.422 49.6462C110.425 49.892 110.48 50.1153 110.588 50.316C110.699 50.5166 110.849 50.6756 111.038 50.7929C111.23 50.9101 111.448 50.9688 111.694 50.9688C111.877 50.9688 112.047 50.9338 112.205 50.8639C112.363 50.794 112.5 50.697 112.618 50.573C112.737 50.4467 112.83 50.3036 112.895 50.1434C112.963 49.9833 112.995 49.8142 112.993 49.6361C112.993 49.3993 112.937 49.1806 112.824 48.9799C112.714 48.7792 112.561 48.618 112.367 48.4962C112.176 48.3744 111.956 48.3135 111.708 48.3135ZM118.293 47.3935V54.3208H117.039V48.6146H116.998L115.378 49.6496V48.4996L117.099 47.3935H118.293ZM120.052 54.3208V53.4143L122.457 51.0567C122.687 50.8245 122.879 50.6181 123.032 50.4377C123.186 50.2573 123.301 50.0826 123.377 49.9134C123.454 49.7443 123.492 49.5639 123.492 49.3722C123.492 49.1535 123.443 48.9663 123.343 48.8108C123.244 48.6529 123.108 48.5311 122.934 48.4454C122.761 48.3598 122.563 48.3169 122.342 48.3169C122.115 48.3169 121.915 48.3643 121.744 48.459C121.572 48.5514 121.439 48.6833 121.344 48.8547C121.252 49.0261 121.206 49.2302 121.206 49.467H120.012C120.012 49.0272 120.112 48.645 120.313 48.3203C120.513 47.9956 120.79 47.7441 121.141 47.566C121.496 47.3879 121.901 47.2988 122.359 47.2988C122.824 47.2988 123.232 47.3856 123.584 47.5592C123.935 47.7329 124.208 47.9708 124.402 48.2729C124.598 48.5751 124.696 48.9201 124.696 49.308C124.696 49.5673 124.647 49.8221 124.548 50.0724C124.448 50.3227 124.274 50.6001 124.023 50.9045C123.775 51.2089 123.427 51.5776 122.978 52.0106L121.784 53.2249V53.2722H124.801V54.3208H120.052Z" fill="black" fill-opacity="0.62"/>
<circle cx="101.949" cy="53.8997" r="0.912381" fill="black" fill-opacity="0.62"/>
<path d="M1.07113 38.6875H0.765093L8.39052 20.8353L8.67106 20.7078L15.0978 38.6875H12.9301L10.9408 33.0768H3.49393L1.07113 38.6875ZM7.59993 23.5897L3.59594 32.8218H10.8643L7.59993 23.5897ZM27.2196 38.6875C26.5225 38.6875 25.9869 38.5345 25.6129 38.2284C25.2558 37.9224 25.0688 37.6164 25.0518 37.3103L25.0263 36.8768V28.8688C25.0263 27.5256 24.6778 26.667 23.9807 26.293C23.6236 26.123 23.1816 26.038 22.6545 26.038C21.5664 26.038 20.5888 26.4715 19.7217 27.3386C18.8546 28.1887 18.421 28.9538 18.421 29.6339V38.6875H16.6358V25.9359H18.421V28.8433C18.71 28.1122 19.2456 27.4321 20.0277 26.8031C20.8098 26.157 21.6684 25.8339 22.6035 25.8339C23.5386 25.8339 24.2952 25.9274 24.8733 26.1145C25.4684 26.2845 25.9019 26.531 26.174 26.8541C26.599 27.3811 26.8115 28.0612 26.8115 28.8943V36.8768C26.8115 37.3698 26.905 37.7524 27.0921 38.0244C27.2961 38.2795 27.5001 38.4155 27.7041 38.4325L27.9847 38.4835H28.7753V38.6875H27.2196ZM35.7785 26.038C34.5713 26.038 33.5597 26.616 32.7436 27.7722C31.9445 28.9283 31.545 30.5265 31.545 32.5668C31.545 34.607 31.9105 36.1202 32.6416 37.1063C33.3897 38.0924 34.3673 38.5855 35.5744 38.5855C37.0876 38.5855 38.4308 38.3305 39.6039 37.8204L39.6804 37.9989C38.4733 38.526 37.0621 38.7895 35.4469 38.7895C33.8317 38.7895 32.4886 38.2795 31.4174 37.2593C30.3463 36.2392 29.8107 34.6665 29.8107 32.5413C29.8107 30.416 30.3718 28.7668 31.4939 27.5936C32.6161 26.4205 34.0443 25.8339 35.7785 25.8339C36.7476 25.8339 37.6402 26.055 38.4563 26.497C39.2894 26.9391 39.9015 27.6107 40.2925 28.5118H38.6603C38.4053 27.6787 38.0142 27.0581 37.4872 26.65C36.9771 26.242 36.4075 26.038 35.7785 26.038ZM44.6904 38.6875C43.9933 38.6875 43.4578 38.5345 43.0837 38.2284C42.7267 37.9224 42.5396 37.6164 42.5226 37.3103L42.4971 36.8768V25.9359H44.2824V36.8768C44.2824 37.3698 44.3759 37.7524 44.5629 38.0244C44.7669 38.2795 44.9624 38.4155 45.1495 38.4325L45.4555 38.4835H46.2461V38.6875H44.6904ZM42.6502 23.0796C42.4461 22.8756 42.3441 22.6205 42.3441 22.3145C42.3441 22.0085 42.4461 21.7534 42.6502 21.5494C42.8542 21.3284 43.1092 21.2179 43.4153 21.2179C43.7213 21.2179 43.9763 21.3284 44.1803 21.5494C44.4014 21.7534 44.5119 22.0085 44.5119 22.3145C44.5119 22.6205 44.4014 22.8756 44.1803 23.0796C43.9763 23.2836 43.7213 23.3856 43.4153 23.3856C43.1092 23.3856 42.8542 23.2836 42.6502 23.0796ZM48.7546 32.4647C48.7546 34.573 49.1201 36.1202 49.8512 37.1063C50.5993 38.0924 51.5769 38.5855 52.7841 38.5855C54.4843 38.5855 55.9974 38.3305 57.3236 37.8204L57.4001 37.9989C56.04 38.526 54.5013 38.7895 52.7841 38.7895C51.0838 38.7895 49.6982 38.2795 48.627 37.2593C47.5559 36.2392 47.0204 34.6665 47.0204 32.5413C47.0204 30.416 47.5814 28.7668 48.7036 27.5936C49.8257 26.4205 51.2539 25.8339 52.9881 25.8339C54.3822 25.8339 55.5554 26.2505 56.5075 27.0836C57.4596 27.9167 57.9357 29.1493 57.9357 30.7815C57.9357 30.8665 57.9357 30.9516 57.9357 31.0366H48.8311C48.7801 31.4956 48.7546 31.9717 48.7546 32.4647ZM56.2015 30.8325C56.1845 29.2003 55.8699 27.9932 55.2579 27.2111C54.6458 26.429 53.8552 26.038 52.8861 26.038C51.9169 26.038 51.0498 26.463 50.2848 27.3131C49.5367 28.1632 49.0606 29.3364 48.8566 30.8325H56.2015ZM69.5587 38.6875C68.8616 38.6875 68.3261 38.5345 67.952 38.2284C67.595 37.9224 67.408 37.6164 67.391 37.3103L67.3655 36.8768V28.8688C67.3655 27.5256 67.0169 26.667 66.3198 26.293C65.9628 26.123 65.5207 26.038 64.9937 26.038C63.9055 26.038 62.9279 26.4715 62.0608 27.3386C61.1937 28.1887 60.7602 28.9538 60.7602 29.6339V38.6875H58.9749V25.9359H60.7602V28.8433C61.0492 28.1122 61.5848 27.4321 62.3668 26.8031C63.1489 26.157 64.0075 25.8339 64.9427 25.8339C65.8778 25.8339 66.6344 25.9274 67.2124 26.1145C67.8075 26.2845 68.2411 26.531 68.5131 26.8541C68.9381 27.3811 69.1507 28.0612 69.1507 28.8943V36.8768C69.1507 37.3698 69.2442 37.7524 69.4312 38.0244C69.6352 38.2795 69.8393 38.4155 70.0433 38.4325L70.3238 38.4835H71.1144V38.6875H69.5587ZM72.2714 26.14V25.9359H72.807V23.3856H74.5922V25.9359H78.4942V26.14H74.5922V35.4231C74.5922 36.5282 74.7112 37.3273 74.9492 37.8204C75.2043 38.3135 75.7228 38.56 76.5049 38.56C77.304 38.56 78.1116 38.3985 78.9277 38.0754L79.0042 38.2795C78.1541 38.6025 77.1765 38.764 76.0714 38.764C74.9832 38.764 74.1671 38.543 73.6231 38.1009C73.079 37.6419 72.807 36.7408 72.807 35.3976V26.14H72.2714Z" fill="black"/>
<path d="M121.261 21.0394C123.233 20.9033 124.967 20.8353 126.463 20.8353C130.68 20.8353 132.788 22.323 132.788 25.2984C132.788 26.6755 132.431 27.8827 131.717 28.9198C131.343 29.4809 130.765 29.9314 129.983 30.2715C129.201 30.5945 128.257 30.756 127.152 30.756H123.378V38.6875H121.261V21.0394ZM126.489 21.0904C125.503 21.0904 124.466 21.1499 123.378 21.2689V30.501H127.152C129.549 30.399 130.748 28.6818 130.748 25.3494C130.748 23.9892 130.391 22.9436 129.677 22.2125C128.963 21.4644 127.9 21.0904 126.489 21.0904ZM137.443 38.6875C136.745 38.6875 136.21 38.5345 135.836 38.2284C135.479 37.9224 135.292 37.6164 135.275 37.3103L135.249 36.8768V25.9359H137.034V36.8768C137.034 37.3698 137.128 37.7524 137.315 38.0244C137.519 38.2795 137.715 38.4155 137.902 38.4325L138.208 38.4835H138.998V38.6875H137.443ZM135.402 23.0796C135.198 22.8756 135.096 22.6205 135.096 22.3145C135.096 22.0085 135.198 21.7534 135.402 21.5494C135.606 21.3284 135.861 21.2179 136.167 21.2179C136.473 21.2179 136.728 21.3284 136.932 21.5494C137.153 21.7534 137.264 22.0085 137.264 22.3145C137.264 22.6205 137.153 22.8756 136.932 23.0796C136.728 23.2836 136.473 23.3856 136.167 23.3856C135.861 23.3856 135.606 23.2836 135.402 23.0796ZM141.507 32.4647C141.507 34.573 141.872 36.1202 142.603 37.1063C143.351 38.0924 144.329 38.5855 145.536 38.5855C147.236 38.5855 148.75 38.3305 150.076 37.8204L150.152 37.9989C148.792 38.526 147.253 38.7895 145.536 38.7895C143.836 38.7895 142.45 38.2795 141.379 37.2593C140.308 36.2392 139.772 34.6665 139.772 32.5413C139.772 30.416 140.334 28.7668 141.456 27.5936C142.578 26.4205 144.006 25.8339 145.74 25.8339C147.134 25.8339 148.308 26.2505 149.26 27.0836C150.212 27.9167 150.688 29.1493 150.688 30.7815C150.688 30.8665 150.688 30.9516 150.688 31.0366H141.583C141.532 31.4956 141.507 31.9717 141.507 32.4647ZM148.954 30.8325C148.937 29.2003 148.622 27.9932 148.01 27.2111C147.398 26.429 146.607 26.038 145.638 26.038C144.669 26.038 143.802 26.463 143.037 27.3131C142.289 28.1632 141.813 29.3364 141.609 30.8325H148.954ZM158.467 26.038C157.26 26.038 156.248 26.616 155.432 27.7722C154.633 28.9283 154.233 30.5265 154.233 32.5668C154.233 34.607 154.599 36.1202 155.33 37.1063C156.078 38.0924 157.056 38.5855 158.263 38.5855C159.776 38.5855 161.119 38.3305 162.292 37.8204L162.369 37.9989C161.162 38.526 159.751 38.7895 158.135 38.7895C156.52 38.7895 155.177 38.2795 154.106 37.2593C153.035 36.2392 152.499 34.6665 152.499 32.5413C152.499 30.416 153.06 28.7668 154.182 27.5936C155.304 26.4205 156.733 25.8339 158.467 25.8339C159.436 25.8339 160.329 26.055 161.145 26.497C161.978 26.9391 162.59 27.6107 162.981 28.5118H161.349C161.094 27.6787 160.703 27.0581 160.176 26.65C159.665 26.242 159.096 26.038 158.467 26.038ZM166.263 32.4647C166.263 34.573 166.628 36.1202 167.359 37.1063C168.107 38.0924 169.085 38.5855 170.292 38.5855C171.992 38.5855 173.506 38.3305 174.832 37.8204L174.908 37.9989C173.548 38.526 172.009 38.7895 170.292 38.7895C168.592 38.7895 167.206 38.2795 166.135 37.2593C165.064 36.2392 164.528 34.6665 164.528 32.5413C164.528 30.416 165.089 28.7668 166.212 27.5936C167.334 26.4205 168.762 25.8339 170.496 25.8339C171.89 25.8339 173.063 26.2505 174.016 27.0836C174.968 27.9167 175.444 29.1493 175.444 30.7815C175.444 30.8665 175.444 30.9516 175.444 31.0366H166.339C166.288 31.4956 166.263 31.9717 166.263 32.4647ZM173.71 30.8325C173.693 29.2003 173.378 27.9932 172.766 27.2111C172.154 26.429 171.363 26.038 170.394 26.038C169.425 26.038 168.558 26.463 167.793 27.3131C167.045 28.1632 166.569 29.3364 166.365 30.8325H173.71Z" fill="black"/>
</svg>
