<svg width="61" height="61" viewBox="0 0 61 61" fill="none" xmlns="http://www.w3.org/2000/svg">
<path d="M7.52036 13.7832C7.52036 35.1842 24.8693 52.5332 46.2704 52.5332C47.2359 52.5332 48.1931 52.498 49.1411 52.4285C50.2289 52.3487 50.7726 52.309 51.2679 52.024C51.6779 51.788 52.0666 51.3695 52.2721 50.9432C52.5204 50.4287 52.5204 49.8285 52.5204 48.6282V41.585C52.5204 40.5755 52.5204 40.0707 52.3541 39.6382C52.2076 39.256 51.9691 38.9157 51.6601 38.6472C51.3104 38.3432 50.8359 38.1707 49.8874 37.8257L41.8704 34.9105C40.7666 34.5092 40.2146 34.3085 39.6911 34.3425C39.2294 34.3725 38.7851 34.5302 38.4076 34.7977C37.9796 35.101 37.6776 35.6045 37.0734 36.6117L35.0204 40.0332C28.3956 37.033 23.0251 31.6555 20.0204 25.0332L23.4419 22.9803C24.449 22.376 24.9525 22.0739 25.2559 21.6459C25.5234 21.2684 25.6811 20.8241 25.7111 20.3625C25.7451 19.8389 25.5444 19.287 25.1431 18.1833L22.2278 10.1662C21.8829 9.2176 21.7104 8.74328 21.4064 8.39345C21.1379 8.08443 20.7976 7.84608 20.4154 7.69933C19.9828 7.5332 19.4781 7.5332 18.4687 7.5332H11.4254C10.2251 7.5332 9.62488 7.5332 9.1103 7.78133C8.6841 7.98685 8.26571 8.37573 8.02961 8.78578C7.74456 9.28088 7.70473 9.82475 7.62508 10.9125C7.55568 11.8604 7.52036 12.8177 7.52036 13.7832Z" stroke="#EE941E" stroke-width="5" stroke-linecap="round" stroke-linejoin="round"/>
</svg>
