<svg width="60" height="60" viewBox="0 0 60 60" fill="none" xmlns="http://www.w3.org/2000/svg">
<path fill-rule="evenodd" clip-rule="evenodd" d="M41.3212 15C41.2745 14.7983 41.226 14.5961 41.1752 14.3937C40.5152 11.7535 39.476 8.88458 37.7812 6.625C36.0337 4.29505 33.4822 2.5 30 2.5C26.5177 2.5 23.9662 4.29505 22.2187 6.625C20.524 8.88458 19.4847 11.7535 18.8246 14.3937C18.774 14.5961 18.7254 14.7983 18.6786 15H14.6777C10.7293 15 7.457 18.0614 7.19435 22.0011L5.361 49.501C5.07243 53.83 8.50593 57.5 12.8444 57.5H47.1555C51.494 57.5 54.9275 53.83 54.639 49.501L52.8055 22.0011C52.543 18.0614 49.2707 15 45.3222 15H41.3212ZM20 27.5C21.4324 27.5 22.4951 26.421 22.5 24.9954C22.5004 24.9359 22.5011 24.8765 22.5021 24.817C22.5043 24.6853 22.5088 24.4864 22.5179 24.2299C22.5363 23.7163 22.5732 22.975 22.6476 22.0826C22.7004 21.4494 22.7714 20.7465 22.8668 20H37.1332C37.2285 20.7465 37.2995 21.4494 37.3525 22.0826C37.4267 22.975 37.4637 23.7163 37.482 24.2299C37.4912 24.4864 37.4957 24.6853 37.498 24.817C37.499 24.8783 37.4997 24.9397 37.5 25.001C37.5 25.001 37.5 27.5 40 27.5C42.5 27.5 42.5 24.9967 42.5 24.9967C42.4997 24.909 42.4987 24.8214 42.4972 24.7337C42.4945 24.5725 42.4892 24.3417 42.4787 24.0514C42.4582 23.4712 42.417 22.65 42.335 21.6674C42.2925 21.1551 42.2382 20.5953 42.1697 20H45.3222C46.6385 20 47.7292 21.0205 47.8167 22.3337L49.65 49.8338C49.7462 51.2768 48.6017 52.5 47.1555 52.5H12.8444C11.3983 52.5 10.2538 51.2768 10.3499 49.8338L12.1833 22.3337C12.2708 21.0205 13.3616 20 14.6777 20H17.8302C17.7616 20.5953 17.7076 21.1551 17.6649 21.6674C17.583 22.65 17.5418 23.4712 17.5211 24.0514C17.5107 24.3417 17.5055 24.5725 17.5028 24.7337C17.5013 24.8196 17.5003 24.9055 17.5 24.9915C17.4981 26.418 18.5708 27.5 20 27.5ZM23.8338 15H36.1662C35.5882 12.883 34.8025 10.9866 33.7812 9.625C32.7162 8.20495 31.5177 7.5 30 7.5C28.4822 7.5 27.2837 8.20495 26.2187 9.625C25.1975 10.9866 24.4118 12.883 23.8338 15Z" fill="#EE941E"/>
</svg>
